<?xml version="1.0" encoding="UTF-8" standalone="no"?>
<!-- Created with Inkscape (http://www.inkscape.org/) -->

<svg
   width="98.114418"
   height="160.50793"
   viewBox="0 0 25.959437 42.467719"
   version="1.1"
   id="svg1"
   xmlns="http://www.w3.org/2000/svg"
   xmlns:svg="http://www.w3.org/2000/svg">
  <defs
     id="defs1" />
  <g
     id="layer6"
     style="display:inline"
     transform="translate(-14.291061,-18.558055)">
    <path
       style="fill:#2557d3;fill-opacity:1;stroke:#000000;stroke-width:0.263325;stroke-dasharray:none"
       d="m 14.572902,27.040568 c -0.270506,7.443406 -0.09267,31.392669 -0.09267,31.392669 0,0 4.730635,1.956219 11.088745,2.385742 5.029328,0.339756 11.508425,-0.489398 14.454995,-2.504562 l 0.06178,-31.416435 C 38.193234,22.61302 35.54562,18.698874 28.435579,18.689738 c -8.388167,-0.01078 -13.714226,4.266026 -13.862674,8.35083 z"
       id="path20" />
    <g
       id="layer3"
       style="display:inline">
      <path
         style="fill:none;stroke:#000000;stroke-width:0.264583"
         d="m 20.65168,20.123381 c 0,0 6.387611,10.325839 13.447604,11.142301 l 6.099449,-2.593467"
         id="path7" />
      <path
         style="fill:none;stroke:#000000;stroke-width:0.264583"
         d="m 31.842007,30.78541 0.240136,2.449385 C 31.635314,34.624931 18.564692,26.653587 18.730593,20.939843"
         id="path8" />
      <path
         style="fill:none;stroke:#000000;stroke-width:0.264583"
         d="m 35.203909,30.881464 -0.240136,2.785576 5.138906,-2.401358"
         id="path9" />
      <path
         style="fill:none;fill-opacity:1;stroke:#000000;stroke-width:0.263918"
         d="m 31.025308,33.282942 2.786051,13.330065 c 0,0 -0.04804,9.268933 -0.768566,9.651158"
         id="path49" />
      <path
         style="fill:none;fill-opacity:1;stroke:#000000;stroke-width:0.259775"
         d="m 35.210407,33.665899 c 0,0 -1.162304,12.626084 -1.162304,12.865214 0,0.239131 0.185969,8.895651 1.348273,9.326085"
         id="path50" />
      <circle
         style="fill:#000000;fill-opacity:1;stroke:#000000;stroke-width:0.208281"
         id="path51"
         cx="33.72261"
         cy="34.809341"
         r="0.77527827" />
      <circle
         style="fill:#000000;fill-opacity:1;stroke:#000000;stroke-width:0.208281"
         id="circle51"
         cx="33.790531"
         cy="38.646858"
         r="0.77527827" />
      <circle
         style="fill:#000000;fill-opacity:1;stroke:#000000;stroke-width:0.208281"
         id="circle52"
         cx="33.72261"
         cy="46.96714"
         r="0.77527827" />
      <path
         style="fill:none;fill-opacity:1;stroke:#000000;stroke-width:0.264583"
         d="m 14.535022,55.083658 c 0,0 16.097197,4.550685 25.60609,-1.426334"
         id="path52" />
    </g>
    <g
       id="layer11"
       style="display:inline">
      <path
         style="fill:#dcdcdc;fill-opacity:1;stroke:#000000;stroke-width:0.256708"
         d="m 133.12913,209.40959 c -1.43277,-2.23128 -2.78708,-11.76065 -3.48398,-24.51447 l -0.2419,-4.42707 0.62481,-0.67418 c 1.14654,-1.23714 1.14148,-3.32882 -0.0111,-4.57244 l -0.61552,-0.66416 1.27615,-14.18102 c 2.08913,-23.21495 3.01346,-33.08132 3.10718,-33.16617 0.0486,-0.044 3.94827,-1.88116 8.66583,-4.08249 l 8.57739,-4.0024 -0.1702,12.74292 c -0.0936,7.00861 -0.1702,25.81713 -0.1702,41.79671 v 29.05377 l -2.37455,1.3137 c -3.22088,1.78192 -7.08901,3.45214 -11.15592,4.81702 -1.86477,0.62583 -3.45049,1.13788 -3.52381,1.13788 -0.0733,0 -0.30023,-0.25992 -0.50422,-0.5776 z"
         id="path54"
         transform="scale(0.2645833)" />
      <path
         style="fill:#dcdcdc;fill-opacity:1;stroke:#000000;stroke-width:0.256708"
         d="M 117.44393,124.98683 C 112.44437,123.27877 104.63212,118.67952 96.820848,112.84552 81.94925,101.7384 72.966221,90.521667 71.499838,81.228231 l -0.165156,-1.0467 3.065649,-1.584558 c 1.686107,-0.871506 3.165754,-1.580652 3.288106,-1.575879 0.122351,0.0048 0.857809,0.95735 1.634351,2.116838 4.716468,7.042363 10.621488,14.180229 17.052569,20.61279 7.256743,7.258408 13.156563,11.746198 19.666603,14.959688 1.75941,0.86849 3.68418,1.47404 3.83355,1.59526 0.14937,0.12123 0.0518,2.02917 0.22685,3.99029 0.17506,1.96112 0.38338,3.94111 0.46293,4.39998 0.13966,0.80565 0.115,0.834 -0.71824,0.8257 -0.47458,-0.005 -1.55598,-0.2454 -2.40312,-0.53481 z"
         id="path55"
         transform="scale(0.2645833)" />
      <path
         style="fill:#dcdcdc;fill-opacity:1;stroke:#000000;stroke-width:0.256708"
         d="m 132.98336,125.23682 c 0.0195,-1.95832 0.69984,-8.21758 0.91466,-8.41536 0.23319,-0.2147 16.63142,-7.20712 16.90173,-7.20712 0.0795,0 0.14458,1.8301 0.14458,4.06689 v 4.06689 l -8.64463,4.0447 c -4.75454,2.22459 -8.79769,4.10344 -8.98478,4.17523 -0.24166,0.0927 -0.33766,-0.11899 -0.33156,-0.73123 z"
         id="path56"
         transform="scale(0.2645833)" />
      <path
         style="display:inline;fill:#7098ea;fill-opacity:1;stroke:#000000;stroke-width:0.248516;stroke-dasharray:none"
         d="m 14.587838,32.154655 6.300851,-0.04764 2.109184,1.543463 -8.490132,-0.04764 z"
         id="path65" />
      <path
         style="fill:#7098ea;fill-opacity:1;stroke:#000000;stroke-width:0.264583;stroke-dasharray:none"
         d="m 36.389482,37.453545 3.076907,-0.454802 -1.328435,-1.957391 -0.342608,0.900091 -1.003131,-0.849513 z"
         id="path66" />
      <path
         style="fill:#aea591;fill-opacity:1;stroke:#000000;stroke-width:0.256708;stroke-dasharray:none"
         d="m 98.19083,229.34502 c -0.564758,-0.0556 -2.528575,-0.22335 -4.364037,-0.37288 -11.526826,-0.93909 -25.935104,-4.00557 -36.092757,-7.68153 l -2.207294,-0.7988 -0.167255,-3.1106 c -0.183918,-3.42046 -0.224327,-8.42086 -0.06805,-8.42086 0.05456,0 1.758463,0.39893 3.786444,0.88651 14.027111,3.37247 29.034215,5.1412 43.476989,5.12418 10.71045,-0.0126 18.11228,-0.73375 26.40651,-2.57268 2.2401,-0.49666 4.22533,-0.84453 4.41162,-0.77304 0.1863,0.0715 0.37611,0.0178 0.42181,-0.11928 0.0457,-0.13709 1.75706,-0.81242 3.80303,-1.50073 4.38851,-1.47641 7.20657,-2.66043 10.46485,-4.39686 1.30948,-0.69786 2.43745,-1.26884 2.50661,-1.26884 0.0692,0 0.0952,3.5522 0.0579,7.89377 l -0.0679,7.89377 -1.92531,1.09463 c -6.4606,3.67316 -17.25993,6.37474 -31.06167,7.77048 -2.70465,0.27351 -17.45723,0.54202 -19.381458,0.35276 z"
         id="path83"
         transform="scale(0.2645833)" />
      <path
         style="fill:#dcdcdc;fill-opacity:1;stroke:#000000;stroke-width:0.256708;stroke-dasharray:none"
         d="M 95.238687,213.66529 C 82.522561,212.96691 70.289855,211.237 58.978675,208.53754 l -3.786444,-0.90365 v -40.06671 -40.06671 l 16.557669,0.17712 c 9.106718,0.0974 16.55767,0.0804 16.55767,-0.0378 0,-0.11823 -2.043391,-1.70733 -4.540871,-3.53133 l -4.54087,-3.31636 -11.888445,0.0846 -11.888445,0.0845 0.01228,-6.50772 c 0.0068,-3.57924 0.109163,-8.41377 0.227572,-10.7434 0.191543,-3.768494 0.308079,-4.514935 1.056558,-6.767507 1.830281,-5.508291 5.983267,-10.667559 12.116582,-15.05247 l 1.476071,-1.055293 v 0.755535 c 0,1.428055 1.320145,5.309065 2.727149,8.017371 4.112989,7.916984 13.539742,17.596534 25.351313,26.031144 5.883386,4.20132 13.509066,8.65802 17.104416,9.99642 l 1.15744,0.43086 4.94189,23.67009 c 2.71804,13.01855 4.93814,23.84337 4.93355,24.05515 -0.005,0.21178 -0.37005,0.5632 -0.81214,0.78092 -2.39204,1.17804 -2.23052,4.81382 0.26752,6.02157 l 1.06135,0.51314 -0.002,2.18229 c -0.005,6.63094 -0.78897,20.09173 -1.42852,24.5159 -0.59093,4.08781 -0.61872,4.1375 -2.49666,4.46396 -7.00793,1.21822 -19.63863,1.85016 -27.905107,1.39616 z"
         id="path84"
         transform="scale(0.2645833)" />
      <path
         style="fill:#aea591;fill-opacity:1;stroke:none;stroke-width:0.18152;stroke-dasharray:none;stroke-opacity:1"
         d="m 127.33628,117.35066 c -12.0087,-2.22121 -25.11977,-11.56332 -38.082588,-27.135218 -3.836206,-4.608336 -10.11097,-13.146322 -10.11097,-13.75786 0,-0.186984 2.940706,-1.284487 5.639089,-2.104569 9.242487,-2.80894 22.170969,-3.864429 31.209469,-2.547961 15.7463,2.293465 25.90962,10.546127 33.69809,27.363004 l 1.16184,2.508654 -0.0494,3.2703 -0.0494,3.27031 -11.0533,4.70382 c -6.07932,2.5871 -11.06204,4.69499 -11.07272,4.68418 -0.0107,-0.0108 -0.59121,-0.1254 -1.29006,-0.25466 z"
         id="path90"
         transform="scale(0.2645833)" />
    </g>
  </g>
</svg>
