<?xml version="1.0" encoding="UTF-8" standalone="no"?>
<!-- Created with Inkscape (http://www.inkscape.org/) -->

<svg
   width="256"
   height="256"
   viewBox="0 0 67.733325 67.733325"
   version="1.1"
   id="svg1"
   inkscape:version="1.4.2 (f4327f4, 2025-05-13)"
   sodipodi:docname="base_drawing.svg"
   inkscape:export-filename="base_drawing.png"
   inkscape:export-xdpi="96"
   inkscape:export-ydpi="96"
   inkscape:export-batch-path="D:\Final Project\Assets\Sprites"
   inkscape:export-batch-name="base_drawing"
   xmlns:inkscape="http://www.inkscape.org/namespaces/inkscape"
   xmlns:sodipodi="http://sodipodi.sourceforge.net/DTD/sodipodi-0.dtd"
   xmlns="http://www.w3.org/2000/svg"
   xmlns:svg="http://www.w3.org/2000/svg">
  <sodipodi:namedview
     id="namedview1"
     pagecolor="#ffffff"
     bordercolor="#000000"
     borderopacity="0.25"
     inkscape:showpageshadow="2"
     inkscape:pageopacity="0.0"
     inkscape:pagecheckerboard="0"
     inkscape:deskcolor="#d1d1d1"
     inkscape:document-units="px"
     showgrid="true"
     showguides="true"
     inkscape:zoom="2.7545174"
     inkscape:cx="78.416642"
     inkscape:cy="118.8956"
     inkscape:window-width="1920"
     inkscape:window-height="991"
     inkscape:window-x="-9"
     inkscape:window-y="-9"
     inkscape:window-maximized="1"
     inkscape:current-layer="layer2">
    <inkscape:grid
       id="grid1"
       units="px"
       originx="0"
       originy="0"
       spacingx="0.2645833"
       spacingy="1.3229165"
       empcolor="#ad2535"
       empopacity="0.23529412"
       color="#43578d"
       opacity="0.10196078"
       empspacing="5"
       enabled="true"
       visible="true" />
    <sodipodi:guide
       position="33.866662,63.499992"
       orientation="0,1"
       id="guide2"
       inkscape:locked="false"
       inkscape:label=""
       inkscape:color="rgb(0,134,229)" />
    <sodipodi:guide
       position="50.270827,40.261789"
       orientation="-1,0"
       id="guide3"
       inkscape:locked="false"
       inkscape:label=""
       inkscape:color="rgb(0,134,229)" />
    <sodipodi:guide
       position="10.583332,40.549952"
       orientation="-1,0"
       id="guide4"
       inkscape:locked="false"
       inkscape:label=""
       inkscape:color="rgb(0,134,229)" />
    <sodipodi:guide
       position="34.483502,4.3374724"
       orientation="0,1"
       id="guide5"
       inkscape:locked="false"
       inkscape:label=""
       inkscape:color="rgb(0,134,229)" />
  </sodipodi:namedview>
  <defs
     id="defs1">
    <inkscape:path-effect
       effect="spiro"
       id="path-effect82"
       is_visible="true"
       lpeversion="1" />
    <inkscape:path-effect
       effect="spiro"
       id="path-effect80"
       is_visible="true"
       lpeversion="1" />
    <inkscape:path-effect
       effect="spiro"
       id="path-effect78"
       is_visible="true"
       lpeversion="1" />
    <inkscape:path-effect
       effect="spiro"
       id="path-effect76"
       is_visible="true"
       lpeversion="1" />
    <inkscape:path-effect
       effect="spiro"
       id="path-effect74"
       is_visible="true"
       lpeversion="1" />
    <inkscape:path-effect
       effect="spiro"
       id="path-effect72"
       is_visible="true"
       lpeversion="1" />
    <inkscape:path-effect
       effect="bspline"
       id="path-effect11"
       is_visible="true"
       lpeversion="1.3"
       weight="33.333333"
       steps="2"
       helper_size="0"
       apply_no_weight="true"
       apply_with_weight="true"
       only_selected="false"
       uniform="false" />
  </defs>
  <g
     inkscape:label="Guideline"
     inkscape:groupmode="layer"
     id="layer1"
     style="display:inline" />
  <g
     inkscape:groupmode="layer"
     id="layer7"
     inkscape:label="Left hand"
     style="display:inline">
    <circle
       style="fill:#c36a6a;fill-opacity:1;stroke:#000000;stroke-width:0.264583;stroke-dasharray:none;stroke-opacity:1"
       id="circle24"
       cx="40.468372"
       cy="39.393986"
       r="3.1558745" />
  </g>
  <g
     inkscape:groupmode="layer"
     id="layer8"
     inkscape:label="Left leg"
     style="display:inline">
    <path
       style="fill:#c4c4b0;fill-opacity:1;stroke:#000000;stroke-width:0.352334;stroke-dasharray:none"
       d="m 29.957541,60.881757 c 0,0 3.737049,1.166615 5.605338,1.177352 1.868289,0.01074 5.377774,-1.06528 5.377774,-1.06528 0,0 0.536696,-3.681601 -0.68144,-4.684725 -2.278915,-1.876666 -7.35989,-1.157164 -8.846087,0.429783 -1.640863,1.752099 -1.455585,4.142872 -1.455585,4.14287 z"
       id="path22"
       sodipodi:nodetypes="czcasc" />
  </g>
  <g
     inkscape:groupmode="layer"
     id="layer6"
     inkscape:label="Body"
     style="display:inline">
    <path
       style="fill:#2557d3;fill-opacity:1;stroke:#000000;stroke-width:0.263325;stroke-dasharray:none"
       d="m 14.572902,27.040568 c -0.270506,7.443406 -0.09267,31.392669 -0.09267,31.392669 0,0 4.730635,1.956219 11.088745,2.385742 5.029328,0.339756 11.508425,-0.489398 14.454995,-2.504562 l 0.06178,-31.416435 C 38.193234,22.61302 35.54562,18.698874 28.435579,18.689738 c -8.388167,-0.01078 -13.714226,4.266026 -13.862674,8.35083 z"
       id="path20"
       sodipodi:nodetypes="scsccss"
       sodipodi:insensitive="true" />
    <g
       inkscape:groupmode="layer"
       id="layer3"
       inkscape:label="Clothes"
       style="display:inline">
      <path
         style="fill:none;stroke:#000000;stroke-width:0.264583"
         d="m 20.65168,20.123381 c 0,0 6.387611,10.325839 13.447604,11.142301 l 6.099449,-2.593467"
         id="path7" />
      <path
         style="fill:none;stroke:#000000;stroke-width:0.264583"
         d="m 31.842007,30.78541 0.240136,2.449385 C 31.635314,34.624931 18.564692,26.653587 18.730593,20.939843"
         id="path8"
         sodipodi:nodetypes="ccc" />
      <path
         style="fill:none;stroke:#000000;stroke-width:0.264583"
         d="m 35.203909,30.881464 -0.240136,2.785576 5.138906,-2.401358"
         id="path9" />
      <path
         style="fill:none;fill-opacity:1;stroke:#000000;stroke-width:0.263918"
         d="m 31.025308,33.282942 2.786051,13.330065 c 0,0 -0.04804,9.268933 -0.768566,9.651158"
         id="path49" />
      <path
         style="fill:none;fill-opacity:1;stroke:#000000;stroke-width:0.259775"
         d="m 35.210407,33.665899 c 0,0 -1.162304,12.626084 -1.162304,12.865214 0,0.239131 0.185969,8.895651 1.348273,9.326085"
         id="path50" />
      <circle
         style="fill:#000000;fill-opacity:1;stroke:#000000;stroke-width:0.208281"
         id="path51"
         cx="33.72261"
         cy="34.809341"
         r="0.77527827" />
      <circle
         style="fill:#000000;fill-opacity:1;stroke:#000000;stroke-width:0.208281"
         id="circle51"
         cx="33.790531"
         cy="38.646858"
         r="0.77527827" />
      <circle
         style="fill:#000000;fill-opacity:1;stroke:#000000;stroke-width:0.208281"
         id="circle52"
         cx="33.72261"
         cy="46.96714"
         r="0.77527827" />
      <path
         style="fill:none;fill-opacity:1;stroke:#000000;stroke-width:0.264583"
         d="m 14.535022,55.083658 c 0,0 16.097197,4.550685 25.60609,-1.426334"
         id="path52" />
    </g>
    <g
       inkscape:groupmode="layer"
       id="layer11"
       inkscape:label="Color"
       style="display:inline">
      <path
         style="fill:#dcdcdc;fill-opacity:1;stroke:#000000;stroke-width:0.256708"
         d="m 133.12913,209.40959 c -1.43277,-2.23128 -2.78708,-11.76065 -3.48398,-24.51447 l -0.2419,-4.42707 0.62481,-0.67418 c 1.14654,-1.23714 1.14148,-3.32882 -0.0111,-4.57244 l -0.61552,-0.66416 1.27615,-14.18102 c 2.08913,-23.21495 3.01346,-33.08132 3.10718,-33.16617 0.0486,-0.044 3.94827,-1.88116 8.66583,-4.08249 l 8.57739,-4.0024 -0.1702,12.74292 c -0.0936,7.00861 -0.1702,25.81713 -0.1702,41.79671 v 29.05377 l -2.37455,1.3137 c -3.22088,1.78192 -7.08901,3.45214 -11.15592,4.81702 -1.86477,0.62583 -3.45049,1.13788 -3.52381,1.13788 -0.0733,0 -0.30023,-0.25992 -0.50422,-0.5776 z"
         id="path54"
         transform="scale(0.2645833)" />
      <path
         style="fill:#dcdcdc;fill-opacity:1;stroke:#000000;stroke-width:0.256708"
         d="M 117.44393,124.98683 C 112.44437,123.27877 104.63212,118.67952 96.820848,112.84552 81.94925,101.7384 72.966221,90.521667 71.499838,81.228231 l -0.165156,-1.0467 3.065649,-1.584558 c 1.686107,-0.871506 3.165754,-1.580652 3.288106,-1.575879 0.122351,0.0048 0.857809,0.95735 1.634351,2.116838 4.716468,7.042363 10.621488,14.180229 17.052569,20.61279 7.256743,7.258408 13.156563,11.746198 19.666603,14.959688 1.75941,0.86849 3.68418,1.47404 3.83355,1.59526 0.14937,0.12123 0.0518,2.02917 0.22685,3.99029 0.17506,1.96112 0.38338,3.94111 0.46293,4.39998 0.13966,0.80565 0.115,0.834 -0.71824,0.8257 -0.47458,-0.005 -1.55598,-0.2454 -2.40312,-0.53481 z"
         id="path55"
         transform="scale(0.2645833)"
         sodipodi:nodetypes="csscscsssssscc" />
      <path
         style="fill:#dcdcdc;fill-opacity:1;stroke:#000000;stroke-width:0.256708"
         d="m 132.98336,125.23682 c 0.0195,-1.95832 0.69984,-8.21758 0.91466,-8.41536 0.23319,-0.2147 16.63142,-7.20712 16.90173,-7.20712 0.0795,0 0.14458,1.8301 0.14458,4.06689 v 4.06689 l -8.64463,4.0447 c -4.75454,2.22459 -8.79769,4.10344 -8.98478,4.17523 -0.24166,0.0927 -0.33766,-0.11899 -0.33156,-0.73123 z"
         id="path56"
         transform="scale(0.2645833)" />
      <path
         style="display:inline;fill:#7098ea;fill-opacity:1;stroke:#000000;stroke-width:0.248516;stroke-dasharray:none"
         d="m 14.587838,32.154655 6.300851,-0.04764 2.109184,1.543463 -8.490132,-0.04764 z"
         id="path65" />
      <path
         style="fill:#7098ea;fill-opacity:1;stroke:#000000;stroke-width:0.264583;stroke-dasharray:none"
         d="m 36.389482,37.453545 3.076907,-0.454802 -1.328435,-1.957391 -0.342608,0.900091 -1.003131,-0.849513 z"
         id="path66" />
      <path
         style="fill:#aea591;fill-opacity:1;stroke:#000000;stroke-width:0.256708;stroke-dasharray:none"
         d="m 98.19083,229.34502 c -0.564758,-0.0556 -2.528575,-0.22335 -4.364037,-0.37288 -11.526826,-0.93909 -25.935104,-4.00557 -36.092757,-7.68153 l -2.207294,-0.7988 -0.167255,-3.1106 c -0.183918,-3.42046 -0.224327,-8.42086 -0.06805,-8.42086 0.05456,0 1.758463,0.39893 3.786444,0.88651 14.027111,3.37247 29.034215,5.1412 43.476989,5.12418 10.71045,-0.0126 18.11228,-0.73375 26.40651,-2.57268 2.2401,-0.49666 4.22533,-0.84453 4.41162,-0.77304 0.1863,0.0715 0.37611,0.0178 0.42181,-0.11928 0.0457,-0.13709 1.75706,-0.81242 3.80303,-1.50073 4.38851,-1.47641 7.20657,-2.66043 10.46485,-4.39686 1.30948,-0.69786 2.43745,-1.26884 2.50661,-1.26884 0.0692,0 0.0952,3.5522 0.0579,7.89377 l -0.0679,7.89377 -1.92531,1.09463 c -6.4606,3.67316 -17.25993,6.37474 -31.06167,7.77048 -2.70465,0.27351 -17.45723,0.54202 -19.381458,0.35276 z"
         id="path83"
         transform="scale(0.2645833)" />
      <path
         style="fill:#dcdcdc;fill-opacity:1;stroke:#000000;stroke-width:0.256708;stroke-dasharray:none"
         d="M 95.238687,213.66529 C 82.522561,212.96691 70.289855,211.237 58.978675,208.53754 l -3.786444,-0.90365 v -40.06671 -40.06671 l 16.557669,0.17712 c 9.106718,0.0974 16.55767,0.0804 16.55767,-0.0378 0,-0.11823 -2.043391,-1.70733 -4.540871,-3.53133 l -4.54087,-3.31636 -11.888445,0.0846 -11.888445,0.0845 0.01228,-6.50772 c 0.0068,-3.57924 0.109163,-8.41377 0.227572,-10.7434 0.191543,-3.768494 0.308079,-4.514935 1.056558,-6.767507 1.830281,-5.508291 5.983267,-10.667559 12.116582,-15.05247 l 1.476071,-1.055293 v 0.755535 c 0,1.428055 1.320145,5.309065 2.727149,8.017371 4.112989,7.916984 13.539742,17.596534 25.351313,26.031144 5.883386,4.20132 13.509066,8.65802 17.104416,9.99642 l 1.15744,0.43086 4.94189,23.67009 c 2.71804,13.01855 4.93814,23.84337 4.93355,24.05515 -0.005,0.21178 -0.37005,0.5632 -0.81214,0.78092 -2.39204,1.17804 -2.23052,4.81382 0.26752,6.02157 l 1.06135,0.51314 -0.002,2.18229 c -0.005,6.63094 -0.78897,20.09173 -1.42852,24.5159 -0.59093,4.08781 -0.61872,4.1375 -2.49666,4.46396 -7.00793,1.21822 -19.63863,1.85016 -27.905107,1.39616 z"
         id="path84"
         transform="scale(0.2645833)" />
      <path
         style="fill:#aea591;fill-opacity:1;stroke:none;stroke-width:0.18152;stroke-dasharray:none;stroke-opacity:1"
         d="m 127.33628,117.35066 c -12.0087,-2.22121 -25.11977,-11.56332 -38.082588,-27.135218 -3.836206,-4.608336 -10.11097,-13.146322 -10.11097,-13.75786 0,-0.186984 2.940706,-1.284487 5.639089,-2.104569 9.242487,-2.80894 22.170969,-3.864429 31.209469,-2.547961 15.7463,2.293465 25.90962,10.546127 33.69809,27.363004 l 1.16184,2.508654 -0.0494,3.2703 -0.0494,3.27031 -11.0533,4.70382 c -6.07932,2.5871 -11.06204,4.69499 -11.07272,4.68418 -0.0107,-0.0108 -0.59121,-0.1254 -1.29006,-0.25466 z"
         id="path90"
         transform="scale(0.2645833)" />
    </g>
  </g>
  <g
     inkscape:groupmode="layer"
     id="layer4"
     inkscape:label="Right leg"
     style="display:inline">
    <path
       style="fill:#c4c4b0;fill-opacity:1;stroke:#000000;stroke-width:0.352334;stroke-dasharray:none"
       d="m 17.329725,62.525147 c 0,0 3.739836,1.157651 5.608145,1.163909 1.868309,0.0063 5.375204,-1.078171 5.375204,-1.078171 0,0 0.527868,-3.682878 -0.69267,-4.683078 -2.283408,-1.871197 -7.362643,-1.139514 -8.845031,0.450992 -1.636658,1.756028 -1.445648,4.14635 -1.445648,4.146348 z"
       id="path21"
       sodipodi:nodetypes="czcasc" />
  </g>
  <g
     inkscape:groupmode="layer"
     id="layer5"
     inkscape:label="Right hand"
     style="display:inline">
    <circle
       style="fill:#c36a6a;fill-opacity:1;stroke:#000000;stroke-width:0.264583;stroke-dasharray:none;stroke-opacity:1"
       id="path23"
       cx="24.557146"
       cy="40.356525"
       r="3.1558745" />
  </g>
  <g
     inkscape:groupmode="layer"
     id="layer2"
     inkscape:label="Head"
     style="display:inline"
     transform="translate(-0.09605391,0.19210865)">
    <g
       inkscape:groupmode="layer"
       id="layer9"
       inkscape:label="Face"
       style="display:inline"
       sodipodi:insensitive="true"
       transform="translate(-0.09605432,0.96054324)">
      <path
         style="display:inline;fill:#c6c2a9;fill-opacity:1;stroke:#000000;stroke-width:0.264583;stroke-dasharray:none"
         d="M 22.885588,12.940161 C 25.162908,4.8590567 37.067384,3.3203423 43.570341,7.4461073 48.635784,10.659848 47.507534,22.830245 41.413605,25.331516 28.953039,30.445992 21.229136,18.818105 22.885588,12.940161 Z"
         id="path19"
         sodipodi:nodetypes="ssss" />
    </g>
    <g
       inkscape:groupmode="layer"
       id="layer13"
       inkscape:label="Mouth"
       style="display:inline">
      <path
         style="fill:none;fill-opacity:1;stroke:#000000;stroke-width:0.264583;stroke-opacity:1"
         d="m 36.245499,22.11783 c 0,0 1.799897,2.886628 4.346924,0.03396"
         id="path16" />
    </g>
    <g
       inkscape:groupmode="layer"
       id="g87"
       inkscape:label="Right eye"
       transform="matrix(-0.99999999,0,0,0.99999999,82.053798,2.1612223)"
       style="display:inline">
      <ellipse
         style="fill:#dcdcdc;fill-opacity:1;stroke:#000000;stroke-width:0.264583;stroke-dasharray:none"
         id="ellipse86"
         cx="-47.066013"
         cy="15.428726"
         transform="scale(-1,1)"
         rx="1.9210865"
         ry="2.0531611" />
      <ellipse
         style="display:inline;fill:#5ac5ba;fill-opacity:1;stroke:#000000;stroke-width:0.388857;stroke-dasharray:none;stroke-opacity:1"
         id="ellipse87"
         cx="-45.664421"
         cy="17.254435"
         rx="1.0804209"
         ry="0.94419271"
         transform="matrix(-0.99929593,0.03751856,0.03751856,0.99929593,0,0)" />
    </g>
    <g
       inkscape:groupmode="layer"
       id="g1"
       inkscape:label="Left eye"
       transform="matrix(-1,0,0,1,82.053798,2.1612223)"
       style="display:inline">
      <ellipse
         style="fill:#dcdcdc;fill-opacity:1;stroke:#000000;stroke-width:0.264583;stroke-dasharray:none"
         id="path85"
         cx="-40.358849"
         cy="15.377786"
         transform="scale(-1,1)"
         rx="1.9210865"
         ry="2.0531611" />
      <ellipse
         style="display:inline;fill:#5ac5ba;fill-opacity:1;stroke:#000000;stroke-width:0.388857;stroke-dasharray:none;stroke-opacity:1"
         id="ellipse1"
         cx="-38.968349"
         cy="16.833109"
         rx="1.0804209"
         ry="0.94419271"
         transform="matrix(-0.99929593,0.03751856,0.03751856,0.99929593,0,0)" />
    </g>
    <g
       inkscape:groupmode="layer"
       id="layer14"
       inkscape:label="Hair">
      <path
         style="fill:none;fill-opacity:1;stroke:#000000;stroke-width:0.264583;stroke-dasharray:none"
         d="m 16.640562,7.4373127 c -0.382887,0.039484 -0.747949,0.231305 -0.997669,0.5242234 -0.249721,0.2929184 -0.381369,0.6837308 -0.359778,1.0680422 0.02159,0.3843115 0.196184,0.7579193 0.477141,1.0210237 0.280958,0.263105 0.665208,0.41283 1.050108,0.40918 0.229377,-0.0022 0.460161,-0.05819 0.656907,-0.176129 0.196747,-0.117938 0.357646,-0.2996116 0.435766,-0.5152868 C 17.981158,9.552691 17.972207,9.3037469 17.864554,9.10119 17.810727,8.9999115 17.73325,8.911024 17.639045,8.8456021 17.544839,8.7801803 17.433961,8.738516 17.319769,8.7278053 c -0.127275,-0.011938 -0.257345,0.014766 -0.371608,0.072084 -0.114263,0.057319 -0.212696,0.1447079 -0.286719,0.248929 -0.148045,0.2084423 -0.194505,0.478897 -0.156721,0.7317568 0.04701,0.3146126 0.218368,0.6042226 0.45301,0.8190106 0.234643,0.214788 0.529589,0.357568 0.837483,0.437522 0.160995,0.04181 0.327317,0.06719 0.493508,0.0603 0.166192,-0.0069 0.332589,-0.047 0.476934,-0.129659 0.144344,-0.08266 0.265554,-0.209454 0.328657,-0.363353 0.0631,-0.1539 0.06457,-0.334842 -0.0086,-0.484214 -0.06865,-0.1401309 -0.199955,-0.2461049 -0.348928,-0.2925456 -0.148974,-0.046441 -0.313628,-0.034963 -0.458516,0.022979 -0.144888,0.057942 -0.270056,0.160763 -0.363018,0.286094 -0.09296,0.125331 -0.154438,0.272554 -0.187951,0.424957 -0.08321,0.378432 0.01305,0.794099 0.260869,1.09196 0.24782,0.29786 0.643511,0.46869 1.029624,0.436255 0.145887,-0.01225 0.290473,-0.05244 0.416844,-0.126357 0.126372,-0.07392 0.233881,-0.182481 0.29758,-0.314297 0.0637,-0.131817 0.08166,-0.287025 0.04019,-0.42743 -0.04147,-0.140404 -0.14434,-0.26348 -0.279168,-0.320528 -0.09899,-0.04188 -0.211836,-0.04764 -0.316169,-0.02181 -0.104333,0.02583 -0.200064,0.08237 -0.277416,0.156996 -0.154703,0.149257 -0.232173,0.364274 -0.255423,0.577979 -0.02432,0.223577 0.0061,0.453366 0.09139,0.66148 0.08525,0.208113 0.225461,0.393941 0.404489,0.530057 0.179027,0.136116 0.396625,0.221765 0.620742,0.240474 0.224117,0.01871 0.45396,-0.0301 0.649318,-0.141518 0.10907,-0.06221 0.210573,-0.147748 0.260427,-0.262988 0.02493,-0.05762 0.03601,-0.121794 0.02739,-0.183981 -0.0086,-0.06219 -0.0376,-0.122089 -0.08406,-0.164317 -0.05405,-0.04913 -0.129607,-0.07198 -0.202458,-0.06675 -0.07285,0.0052 -0.142574,0.03728 -0.198032,0.08481 -0.05546,0.04753 -0.0971,0.109946 -0.125407,0.177276 -0.02831,0.06733 -0.04367,0.139566 -0.05143,0.212192 -0.02219,0.207828 0.01751,0.419305 0.09393,0.613847 0.07641,0.194542 0.188605,0.373288 0.313599,0.540804 0.08706,0.116672 0.181297,0.229179 0.293312,0.322153 0.112014,0.09297 0.243016,0.166124 0.385554,0.19569 0.142538,0.02957 0.297159,0.01293 0.422391,-0.06129 0.06262,-0.03711 0.117209,-0.08815 0.156598,-0.149358 0.03939,-0.06121 0.06332,-0.132599 0.0666,-0.205311 0.0047,-0.105077 -0.0345,-0.210531 -0.102831,-0.290501 -0.06833,-0.07997 -0.164465,-0.134587 -0.26709,-0.157642 -0.102626,-0.02306 -0.21126,-0.01522 -0.311348,0.01712 -0.100088,0.03234 -0.191716,0.08867 -0.26962,0.159344 -0.12672,0.114955 -0.217744,0.269234 -0.254698,0.436288 -0.03695,0.167054 -0.01926,0.346111 0.0519,0.501705 0.07116,0.155593 0.195728,0.28658 0.348658,0.363295 0.15293,0.07671 0.333294,0.09817 0.499391,0.05713 0.16776,-0.04146 0.314029,-0.142068 0.453064,-0.24469 0.139035,-0.102622 0.277783,-0.210745 0.439667,-0.271205 0.08094,-0.03023 0.167228,-0.04798 0.253582,-0.04506 0.08635,0.0029 0.172814,0.02715 0.244467,0.07543 0.07165,0.04828 0.1276,0.121402 0.149029,0.205105 0.02143,0.0837 0.0064,0.177394 -0.04555,0.246461 -0.0484,0.06439 -0.124594,0.103773 -0.203264,0.121107 -0.07867,0.01733 -0.160338,0.01452 -0.240601,0.0076 -0.08026,-0.0069 -0.160451,-0.0177 -0.240992,-0.01613 -0.08054,0.0016 -0.162635,0.01633 -0.232072,0.05717 -0.06975,0.04102 -0.122919,0.10633 -0.160069,0.178212 -0.03715,0.07188 -0.05934,0.150497 -0.07765,0.229312 -0.04139,0.178115 -0.06419,0.360543 -0.06792,0.543365"
         id="path72"
         inkscape:path-effect="#path-effect72"
         inkscape:original-d="m 16.640562,7.4373127 c 0,0 -0.294322,2.0376198 0.169802,3.0224693 0.464125,0.98485 0.339604,-1.1546511 0.509405,-1.7319767 0.169802,-0.5773257 -0.543365,0.7018467 -0.815048,1.0527701 -0.271683,0.3509236 0.860329,0.8376886 1.290493,1.2565326 0.430164,0.418844 0.860328,-0.611286 1.290492,-0.916929 0.430165,-0.3056433 -0.905609,0.294323 -1.358413,0.441484 -0.452804,0.147162 0.849008,1.01881 1.290493,1.528215 0.441484,0.509405 0.328283,-0.792408 0.475444,-1.188612 0.147162,-0.396203 -0.543365,0.464125 -0.849008,0.713167 -0.305643,0.249043 1.165972,0.871649 1.765937,1.290493 0.599966,0.418844 0.124522,-0.407524 0.203762,-0.611286 0.07924,-0.203762 -0.384883,0.271683 -0.577325,0.407524 -0.192442,0.135841 0.283002,0.747127 0.407524,1.154651 0.124521,0.407524 0.871648,0.09056 1.324452,0.101881 0.452805,0.01132 -0.633925,-0.181121 -0.950889,-0.271682 -0.316963,-0.09056 0.441485,0.882968 0.645247,1.358413 0.203762,0.475445 0.962209,0 1.494254,-0.03396 0.532045,-0.03396 -0.566005,0.135841 -0.916929,0.169801 -0.350923,0.03396 -0.203762,0.271683 -0.237722,0.407524 -0.03396,0.135842 -0.02264,0.339604 -0.06792,0.543365"
         sodipodi:nodetypes="csssssssssssssssssssc"
         transform="matrix(0.71592686,0.52291908,-0.71471097,0.52380868,17.794732,-0.75205086)" />
      <path
         style="fill:none;fill-opacity:1;stroke:#000000;stroke-width:0.264583;stroke-dasharray:none"
         d="m 16.640562,7.4373127 c -0.382887,0.039484 -0.747949,0.231305 -0.997669,0.5242234 -0.249721,0.2929184 -0.381369,0.6837308 -0.359778,1.0680422 0.02159,0.3843115 0.196184,0.7579193 0.477141,1.0210237 0.280958,0.263105 0.665208,0.41283 1.050108,0.40918 0.229377,-0.0022 0.460161,-0.05819 0.656907,-0.176129 0.196747,-0.117938 0.357646,-0.2996116 0.435766,-0.5152868 C 17.981158,9.552691 17.972207,9.3037469 17.864554,9.10119 17.810727,8.9999115 17.73325,8.911024 17.639045,8.8456021 17.544839,8.7801803 17.433961,8.738516 17.319769,8.7278053 c -0.127275,-0.011938 -0.257345,0.014766 -0.371608,0.072084 -0.114263,0.057319 -0.212696,0.1447079 -0.286719,0.248929 -0.148045,0.2084423 -0.194505,0.478897 -0.156721,0.7317568 0.04701,0.3146126 0.218368,0.6042226 0.45301,0.8190106 0.234643,0.214788 0.529589,0.357568 0.837483,0.437522 0.160995,0.04181 0.327317,0.06719 0.493508,0.0603 0.166192,-0.0069 0.332589,-0.047 0.476934,-0.129659 0.144344,-0.08266 0.265554,-0.209454 0.328657,-0.363353 0.0631,-0.1539 0.06457,-0.334842 -0.0086,-0.484214 -0.06865,-0.1401309 -0.199955,-0.2461049 -0.348928,-0.2925456 -0.148974,-0.046441 -0.313628,-0.034963 -0.458516,0.022979 -0.144888,0.057942 -0.270056,0.160763 -0.363018,0.286094 -0.09296,0.125331 -0.154438,0.272554 -0.187951,0.424957 -0.08321,0.378432 0.01305,0.794099 0.260869,1.09196 0.24782,0.29786 0.643511,0.46869 1.029624,0.436255 0.145887,-0.01225 0.290473,-0.05244 0.416844,-0.126357 0.126372,-0.07392 0.233881,-0.182481 0.29758,-0.314297 0.0637,-0.131817 0.08166,-0.287025 0.04019,-0.42743 -0.04147,-0.140404 -0.14434,-0.26348 -0.279168,-0.320528 -0.09899,-0.04188 -0.211836,-0.04764 -0.316169,-0.02181 -0.104333,0.02583 -0.200064,0.08237 -0.277416,0.156996 -0.154703,0.149257 -0.232173,0.364274 -0.255423,0.577979 -0.02432,0.223577 0.0061,0.453366 0.09139,0.66148 0.08525,0.208113 0.225461,0.393941 0.404489,0.530057 0.179027,0.136116 0.396625,0.221765 0.620742,0.240474 0.224117,0.01871 0.45396,-0.0301 0.649318,-0.141518 0.10907,-0.06221 0.210573,-0.147748 0.260427,-0.262988 0.02493,-0.05762 0.03601,-0.121794 0.02739,-0.183981 -0.0086,-0.06219 -0.0376,-0.122089 -0.08406,-0.164317 -0.05405,-0.04913 -0.129607,-0.07198 -0.202458,-0.06675 -0.07285,0.0052 -0.142574,0.03728 -0.198032,0.08481 -0.05546,0.04753 -0.0971,0.109946 -0.125407,0.177276 -0.02831,0.06733 -0.04367,0.139566 -0.05143,0.212192 -0.02219,0.207828 0.01751,0.419305 0.09393,0.613847 0.07641,0.194542 0.188605,0.373288 0.313599,0.540804 0.08706,0.116672 0.181297,0.229179 0.293312,0.322153 0.112014,0.09297 0.243016,0.166124 0.385554,0.19569 0.142538,0.02957 0.297159,0.01293 0.422391,-0.06129 0.06262,-0.03711 0.117209,-0.08815 0.156598,-0.149358 0.03939,-0.06121 0.06332,-0.132599 0.0666,-0.205311 0.0047,-0.105077 -0.0345,-0.210531 -0.102831,-0.290501 -0.06833,-0.07997 -0.164465,-0.134587 -0.26709,-0.157642 -0.102626,-0.02306 -0.21126,-0.01522 -0.311348,0.01712 -0.100088,0.03234 -0.191716,0.08867 -0.26962,0.159344 -0.12672,0.114955 -0.217744,0.269234 -0.254698,0.436288 -0.03695,0.167054 -0.01926,0.346111 0.0519,0.501705 0.07116,0.155593 0.195728,0.28658 0.348658,0.363295 0.15293,0.07671 0.333294,0.09817 0.499391,0.05713 0.16776,-0.04146 0.314029,-0.142068 0.453064,-0.24469 0.139035,-0.102622 0.277783,-0.210745 0.439667,-0.271205 0.08094,-0.03023 0.167228,-0.04798 0.253582,-0.04506 0.08635,0.0029 0.172814,0.02715 0.244467,0.07543 0.07165,0.04828 0.1276,0.121402 0.149029,0.205105 0.02143,0.0837 0.0064,0.177394 -0.04555,0.246461 -0.0484,0.06439 -0.124594,0.103773 -0.203264,0.121107 -0.07867,0.01733 -0.160338,0.01452 -0.240601,0.0076 -0.08026,-0.0069 -0.160451,-0.0177 -0.240992,-0.01613 -0.08054,0.0016 -0.162635,0.01633 -0.232072,0.05717 -0.06975,0.04102 -0.122919,0.10633 -0.160069,0.178212 -0.03715,0.07188 -0.05934,0.150497 -0.07765,0.229312 -0.04139,0.178115 -0.06419,0.360543 -0.06792,0.543365"
         id="path73"
         inkscape:path-effect="#path-effect74"
         inkscape:original-d="m 16.640562,7.4373127 c 0,0 -0.294322,2.0376198 0.169802,3.0224693 0.464125,0.98485 0.339604,-1.1546511 0.509405,-1.7319767 0.169802,-0.5773257 -0.543365,0.7018467 -0.815048,1.0527701 -0.271683,0.3509236 0.860329,0.8376886 1.290493,1.2565326 0.430164,0.418844 0.860328,-0.611286 1.290492,-0.916929 0.430165,-0.3056433 -0.905609,0.294323 -1.358413,0.441484 -0.452804,0.147162 0.849008,1.01881 1.290493,1.528215 0.441484,0.509405 0.328283,-0.792408 0.475444,-1.188612 0.147162,-0.396203 -0.543365,0.464125 -0.849008,0.713167 -0.305643,0.249043 1.165972,0.871649 1.765937,1.290493 0.599966,0.418844 0.124522,-0.407524 0.203762,-0.611286 0.07924,-0.203762 -0.384883,0.271683 -0.577325,0.407524 -0.192442,0.135841 0.283002,0.747127 0.407524,1.154651 0.124521,0.407524 0.871648,0.09056 1.324452,0.101881 0.452805,0.01132 -0.633925,-0.181121 -0.950889,-0.271682 -0.316963,-0.09056 0.441485,0.882968 0.645247,1.358413 0.203762,0.475445 0.962209,0 1.494254,-0.03396 0.532045,-0.03396 -0.566005,0.135841 -0.916929,0.169801 -0.350923,0.03396 -0.203762,0.271683 -0.237722,0.407524 -0.03396,0.135842 -0.02264,0.339604 -0.06792,0.543365"
         sodipodi:nodetypes="csssssssssssssssssssc"
         transform="rotate(44.951305,16.407378,20.119582)" />
      <path
         style="fill:none;fill-opacity:1;stroke:#000000;stroke-width:0.264583;stroke-dasharray:none"
         d="m 16.640562,7.4373127 c -0.382887,0.039484 -0.747949,0.231305 -0.997669,0.5242234 -0.249721,0.2929184 -0.381369,0.6837308 -0.359778,1.0680422 0.02159,0.3843115 0.196184,0.7579193 0.477141,1.0210237 0.280958,0.263105 0.665208,0.41283 1.050108,0.40918 0.229377,-0.0022 0.460161,-0.05819 0.656907,-0.176129 0.196747,-0.117938 0.357646,-0.2996116 0.435766,-0.5152868 C 17.981158,9.552691 17.972207,9.3037469 17.864554,9.10119 17.810727,8.9999115 17.73325,8.911024 17.639045,8.8456021 17.544839,8.7801803 17.433961,8.738516 17.319769,8.7278053 c -0.127275,-0.011938 -0.257345,0.014766 -0.371608,0.072084 -0.114263,0.057319 -0.212696,0.1447079 -0.286719,0.248929 -0.148045,0.2084423 -0.194505,0.478897 -0.156721,0.7317568 0.04701,0.3146126 0.218368,0.6042226 0.45301,0.8190106 0.234643,0.214788 0.529589,0.357568 0.837483,0.437522 0.160995,0.04181 0.327317,0.06719 0.493508,0.0603 0.166192,-0.0069 0.332589,-0.047 0.476934,-0.129659 0.144344,-0.08266 0.265554,-0.209454 0.328657,-0.363353 0.0631,-0.1539 0.06457,-0.334842 -0.0086,-0.484214 -0.06865,-0.1401309 -0.199955,-0.2461049 -0.348928,-0.2925456 -0.148974,-0.046441 -0.313628,-0.034963 -0.458516,0.022979 -0.144888,0.057942 -0.270056,0.160763 -0.363018,0.286094 -0.09296,0.125331 -0.154438,0.272554 -0.187951,0.424957 -0.08321,0.378432 0.01305,0.794099 0.260869,1.09196 0.24782,0.29786 0.643511,0.46869 1.029624,0.436255 0.145887,-0.01225 0.290473,-0.05244 0.416844,-0.126357 0.126372,-0.07392 0.233881,-0.182481 0.29758,-0.314297 0.0637,-0.131817 0.08166,-0.287025 0.04019,-0.42743 -0.04147,-0.140404 -0.14434,-0.26348 -0.279168,-0.320528 -0.09899,-0.04188 -0.211836,-0.04764 -0.316169,-0.02181 -0.104333,0.02583 -0.200064,0.08237 -0.277416,0.156996 -0.154703,0.149257 -0.232173,0.364274 -0.255423,0.577979 -0.02432,0.223577 0.0061,0.453366 0.09139,0.66148 0.08525,0.208113 0.225461,0.393941 0.404489,0.530057 0.179027,0.136116 0.396625,0.221765 0.620742,0.240474 0.224117,0.01871 0.45396,-0.0301 0.649318,-0.141518 0.10907,-0.06221 0.210573,-0.147748 0.260427,-0.262988 0.02493,-0.05762 0.03601,-0.121794 0.02739,-0.183981 -0.0086,-0.06219 -0.0376,-0.122089 -0.08406,-0.164317 -0.05405,-0.04913 -0.129607,-0.07198 -0.202458,-0.06675 -0.07285,0.0052 -0.142574,0.03728 -0.198032,0.08481 -0.05546,0.04753 -0.0971,0.109946 -0.125407,0.177276 -0.02831,0.06733 -0.04367,0.139566 -0.05143,0.212192 -0.02219,0.207828 0.01751,0.419305 0.09393,0.613847 0.07641,0.194542 0.188605,0.373288 0.313599,0.540804 0.08706,0.116672 0.181297,0.229179 0.293312,0.322153 0.112014,0.09297 0.243016,0.166124 0.385554,0.19569 0.142538,0.02957 0.297159,0.01293 0.422391,-0.06129 0.06262,-0.03711 0.117209,-0.08815 0.156598,-0.149358 0.03939,-0.06121 0.06332,-0.132599 0.0666,-0.205311 0.0047,-0.105077 -0.0345,-0.210531 -0.102831,-0.290501 -0.06833,-0.07997 -0.164465,-0.134587 -0.26709,-0.157642 -0.102626,-0.02306 -0.21126,-0.01522 -0.311348,0.01712 -0.100088,0.03234 -0.191716,0.08867 -0.26962,0.159344 -0.12672,0.114955 -0.217744,0.269234 -0.254698,0.436288 -0.03695,0.167054 -0.01926,0.346111 0.0519,0.501705 0.07116,0.155593 0.195728,0.28658 0.348658,0.363295 0.15293,0.07671 0.333294,0.09817 0.499391,0.05713 0.16776,-0.04146 0.314029,-0.142068 0.453064,-0.24469 0.139035,-0.102622 0.277783,-0.210745 0.439667,-0.271205 0.08094,-0.03023 0.167228,-0.04798 0.253582,-0.04506 0.08635,0.0029 0.172814,0.02715 0.244467,0.07543 0.07165,0.04828 0.1276,0.121402 0.149029,0.205105 0.02143,0.0837 0.0064,0.177394 -0.04555,0.246461 -0.0484,0.06439 -0.124594,0.103773 -0.203264,0.121107 -0.07867,0.01733 -0.160338,0.01452 -0.240601,0.0076 -0.08026,-0.0069 -0.160451,-0.0177 -0.240992,-0.01613 -0.08054,0.0016 -0.162635,0.01633 -0.232072,0.05717 -0.06975,0.04102 -0.122919,0.10633 -0.160069,0.178212 -0.03715,0.07188 -0.05934,0.150497 -0.07765,0.229312 -0.04139,0.178115 -0.06419,0.360543 -0.06792,0.543365"
         id="path74"
         inkscape:path-effect="#path-effect76"
         inkscape:original-d="m 16.640562,7.4373127 c 0,0 -0.294322,2.0376198 0.169802,3.0224693 0.464125,0.98485 0.339604,-1.1546511 0.509405,-1.7319767 0.169802,-0.5773257 -0.543365,0.7018467 -0.815048,1.0527701 -0.271683,0.3509236 0.860329,0.8376886 1.290493,1.2565326 0.430164,0.418844 0.860328,-0.611286 1.290492,-0.916929 0.430165,-0.3056433 -0.905609,0.294323 -1.358413,0.441484 -0.452804,0.147162 0.849008,1.01881 1.290493,1.528215 0.441484,0.509405 0.328283,-0.792408 0.475444,-1.188612 0.147162,-0.396203 -0.543365,0.464125 -0.849008,0.713167 -0.305643,0.249043 1.165972,0.871649 1.765937,1.290493 0.599966,0.418844 0.124522,-0.407524 0.203762,-0.611286 0.07924,-0.203762 -0.384883,0.271683 -0.577325,0.407524 -0.192442,0.135841 0.283002,0.747127 0.407524,1.154651 0.124521,0.407524 0.871648,0.09056 1.324452,0.101881 0.452805,0.01132 -0.633925,-0.181121 -0.950889,-0.271682 -0.316963,-0.09056 0.441485,0.882968 0.645247,1.358413 0.203762,0.475445 0.962209,0 1.494254,-0.03396 0.532045,-0.03396 -0.566005,0.135841 -0.916929,0.169801 -0.350923,0.03396 -0.203762,0.271683 -0.237722,0.407524 -0.03396,0.135842 -0.02264,0.339604 -0.06792,0.543365"
         sodipodi:nodetypes="csssssssssssssssssssc"
         transform="matrix(0.71592686,0.52291908,-0.71471097,0.52380868,20.171955,-2.9594724)" />
      <path
         style="fill:none;fill-opacity:1;stroke:#000000;stroke-width:0.264583;stroke-dasharray:none"
         d="m 16.640562,7.4373127 c -0.382887,0.039484 -0.747949,0.231305 -0.997669,0.5242234 -0.249721,0.2929184 -0.381369,0.6837308 -0.359778,1.0680422 0.02159,0.3843115 0.196184,0.7579193 0.477141,1.0210237 0.280958,0.263105 0.665208,0.41283 1.050108,0.40918 0.229377,-0.0022 0.460161,-0.05819 0.656907,-0.176129 0.196747,-0.117938 0.357646,-0.2996116 0.435766,-0.5152868 C 17.981158,9.552691 17.972207,9.3037469 17.864554,9.10119 17.810727,8.9999115 17.73325,8.911024 17.639045,8.8456021 17.544839,8.7801803 17.433961,8.738516 17.319769,8.7278053 c -0.127275,-0.011938 -0.257345,0.014766 -0.371608,0.072084 -0.114263,0.057319 -0.212696,0.1447079 -0.286719,0.248929 -0.148045,0.2084423 -0.194505,0.478897 -0.156721,0.7317568 0.04701,0.3146126 0.218368,0.6042226 0.45301,0.8190106 0.234643,0.214788 0.529589,0.357568 0.837483,0.437522 0.160995,0.04181 0.327317,0.06719 0.493508,0.0603 0.166192,-0.0069 0.332589,-0.047 0.476934,-0.129659 0.144344,-0.08266 0.265554,-0.209454 0.328657,-0.363353 0.0631,-0.1539 0.06457,-0.334842 -0.0086,-0.484214 -0.06865,-0.1401309 -0.199955,-0.2461049 -0.348928,-0.2925456 -0.148974,-0.046441 -0.313628,-0.034963 -0.458516,0.022979 -0.144888,0.057942 -0.270056,0.160763 -0.363018,0.286094 -0.09296,0.125331 -0.154438,0.272554 -0.187951,0.424957 -0.08321,0.378432 0.01305,0.794099 0.260869,1.09196 0.24782,0.29786 0.643511,0.46869 1.029624,0.436255 0.145887,-0.01225 0.290473,-0.05244 0.416844,-0.126357 0.126372,-0.07392 0.233881,-0.182481 0.29758,-0.314297 0.0637,-0.131817 0.08166,-0.287025 0.04019,-0.42743 -0.04147,-0.140404 -0.14434,-0.26348 -0.279168,-0.320528 -0.09899,-0.04188 -0.211836,-0.04764 -0.316169,-0.02181 -0.104333,0.02583 -0.200064,0.08237 -0.277416,0.156996 -0.154703,0.149257 -0.232173,0.364274 -0.255423,0.577979 -0.02432,0.223577 0.0061,0.453366 0.09139,0.66148 0.08525,0.208113 0.225461,0.393941 0.404489,0.530057 0.179027,0.136116 0.396625,0.221765 0.620742,0.240474 0.224117,0.01871 0.45396,-0.0301 0.649318,-0.141518 0.10907,-0.06221 0.210573,-0.147748 0.260427,-0.262988 0.02493,-0.05762 0.03601,-0.121794 0.02739,-0.183981 -0.0086,-0.06219 -0.0376,-0.122089 -0.08406,-0.164317 -0.05405,-0.04913 -0.129607,-0.07198 -0.202458,-0.06675 -0.07285,0.0052 -0.142574,0.03728 -0.198032,0.08481 -0.05546,0.04753 -0.0971,0.109946 -0.125407,0.177276 -0.02831,0.06733 -0.04367,0.139566 -0.05143,0.212192 -0.02219,0.207828 0.01751,0.419305 0.09393,0.613847 0.07641,0.194542 0.188605,0.373288 0.313599,0.540804 0.08706,0.116672 0.181297,0.229179 0.293312,0.322153 0.112014,0.09297 0.243016,0.166124 0.385554,0.19569 0.142538,0.02957 0.297159,0.01293 0.422391,-0.06129 0.06262,-0.03711 0.117209,-0.08815 0.156598,-0.149358 0.03939,-0.06121 0.06332,-0.132599 0.0666,-0.205311 0.0047,-0.105077 -0.0345,-0.210531 -0.102831,-0.290501 -0.06833,-0.07997 -0.164465,-0.134587 -0.26709,-0.157642 -0.102626,-0.02306 -0.21126,-0.01522 -0.311348,0.01712 -0.100088,0.03234 -0.191716,0.08867 -0.26962,0.159344 -0.12672,0.114955 -0.217744,0.269234 -0.254698,0.436288 -0.03695,0.167054 -0.01926,0.346111 0.0519,0.501705 0.07116,0.155593 0.195728,0.28658 0.348658,0.363295 0.15293,0.07671 0.333294,0.09817 0.499391,0.05713 0.16776,-0.04146 0.314029,-0.142068 0.453064,-0.24469 0.139035,-0.102622 0.277783,-0.210745 0.439667,-0.271205 0.08094,-0.03023 0.167228,-0.04798 0.253582,-0.04506 0.08635,0.0029 0.172814,0.02715 0.244467,0.07543 0.07165,0.04828 0.1276,0.121402 0.149029,0.205105 0.02143,0.0837 0.0064,0.177394 -0.04555,0.246461 -0.0484,0.06439 -0.124594,0.103773 -0.203264,0.121107 -0.07867,0.01733 -0.160338,0.01452 -0.240601,0.0076 -0.08026,-0.0069 -0.160451,-0.0177 -0.240992,-0.01613 -0.08054,0.0016 -0.162635,0.01633 -0.232072,0.05717 -0.06975,0.04102 -0.122919,0.10633 -0.160069,0.178212 -0.03715,0.07188 -0.05934,0.150497 -0.07765,0.229312 -0.04139,0.178115 -0.06419,0.360543 -0.06792,0.543365"
         id="path76"
         inkscape:path-effect="#path-effect78"
         inkscape:original-d="m 16.640562,7.4373127 c 0,0 -0.294322,2.0376198 0.169802,3.0224693 0.464125,0.98485 0.339604,-1.1546511 0.509405,-1.7319767 0.169802,-0.5773257 -0.543365,0.7018467 -0.815048,1.0527701 -0.271683,0.3509236 0.860329,0.8376886 1.290493,1.2565326 0.430164,0.418844 0.860328,-0.611286 1.290492,-0.916929 0.430165,-0.3056433 -0.905609,0.294323 -1.358413,0.441484 -0.452804,0.147162 0.849008,1.01881 1.290493,1.528215 0.441484,0.509405 0.328283,-0.792408 0.475444,-1.188612 0.147162,-0.396203 -0.543365,0.464125 -0.849008,0.713167 -0.305643,0.249043 1.165972,0.871649 1.765937,1.290493 0.599966,0.418844 0.124522,-0.407524 0.203762,-0.611286 0.07924,-0.203762 -0.384883,0.271683 -0.577325,0.407524 -0.192442,0.135841 0.283002,0.747127 0.407524,1.154651 0.124521,0.407524 0.871648,0.09056 1.324452,0.101881 0.452805,0.01132 -0.633925,-0.181121 -0.950889,-0.271682 -0.316963,-0.09056 0.441485,0.882968 0.645247,1.358413 0.203762,0.475445 0.962209,0 1.494254,-0.03396 0.532045,-0.03396 -0.566005,0.135841 -0.916929,0.169801 -0.350923,0.03396 -0.203762,0.271683 -0.237722,0.407524 -0.03396,0.135842 -0.02264,0.339604 -0.06792,0.543365"
         sodipodi:nodetypes="csssssssssssssssssssc"
         transform="matrix(0.69978688,0.91736382,-0.6985984,0.91892446,20.631277,-12.240382)" />
      <path
         style="fill:none;fill-opacity:1;stroke:#000000;stroke-width:0.264583;stroke-dasharray:none"
         d="m 16.640562,7.4373127 c -0.382887,0.039484 -0.747949,0.231305 -0.997669,0.5242234 -0.249721,0.2929184 -0.381369,0.6837308 -0.359778,1.0680422 0.02159,0.3843115 0.196184,0.7579193 0.477141,1.0210237 0.280958,0.263105 0.665208,0.41283 1.050108,0.40918 0.229377,-0.0022 0.460161,-0.05819 0.656907,-0.176129 0.196747,-0.117938 0.357646,-0.2996116 0.435766,-0.5152868 C 17.981158,9.552691 17.972207,9.3037469 17.864554,9.10119 17.810727,8.9999115 17.73325,8.911024 17.639045,8.8456021 17.544839,8.7801803 17.433961,8.738516 17.319769,8.7278053 c -0.127275,-0.011938 -0.257345,0.014766 -0.371608,0.072084 -0.114263,0.057319 -0.212696,0.1447079 -0.286719,0.248929 -0.148045,0.2084423 -0.194505,0.478897 -0.156721,0.7317568 0.04701,0.3146126 0.218368,0.6042226 0.45301,0.8190106 0.234643,0.214788 0.529589,0.357568 0.837483,0.437522 0.160995,0.04181 0.327317,0.06719 0.493508,0.0603 0.166192,-0.0069 0.332589,-0.047 0.476934,-0.129659 0.144344,-0.08266 0.265554,-0.209454 0.328657,-0.363353 0.0631,-0.1539 0.06457,-0.334842 -0.0086,-0.484214 -0.06865,-0.1401309 -0.199955,-0.2461049 -0.348928,-0.2925456 -0.148974,-0.046441 -0.313628,-0.034963 -0.458516,0.022979 -0.144888,0.057942 -0.270056,0.160763 -0.363018,0.286094 -0.09296,0.125331 -0.154438,0.272554 -0.187951,0.424957 -0.08321,0.378432 0.01305,0.794099 0.260869,1.09196 0.24782,0.29786 0.643511,0.46869 1.029624,0.436255 0.145887,-0.01225 0.290473,-0.05244 0.416844,-0.126357 0.126372,-0.07392 0.233881,-0.182481 0.29758,-0.314297 0.0637,-0.131817 0.08166,-0.287025 0.04019,-0.42743 -0.04147,-0.140404 -0.14434,-0.26348 -0.279168,-0.320528 -0.09899,-0.04188 -0.211836,-0.04764 -0.316169,-0.02181 -0.104333,0.02583 -0.200064,0.08237 -0.277416,0.156996 -0.154703,0.149257 -0.232173,0.364274 -0.255423,0.577979 -0.02432,0.223577 0.0061,0.453366 0.09139,0.66148 0.08525,0.208113 0.225461,0.393941 0.404489,0.530057 0.179027,0.136116 0.396625,0.221765 0.620742,0.240474 0.224117,0.01871 0.45396,-0.0301 0.649318,-0.141518 0.10907,-0.06221 0.210573,-0.147748 0.260427,-0.262988 0.02493,-0.05762 0.03601,-0.121794 0.02739,-0.183981 -0.0086,-0.06219 -0.0376,-0.122089 -0.08406,-0.164317 -0.05405,-0.04913 -0.129607,-0.07198 -0.202458,-0.06675 -0.07285,0.0052 -0.142574,0.03728 -0.198032,0.08481 -0.05546,0.04753 -0.0971,0.109946 -0.125407,0.177276 -0.02831,0.06733 -0.04367,0.139566 -0.05143,0.212192 -0.02219,0.207828 0.01751,0.419305 0.09393,0.613847 0.07641,0.194542 0.188605,0.373288 0.313599,0.540804 0.08706,0.116672 0.181297,0.229179 0.293312,0.322153 0.112014,0.09297 0.243016,0.166124 0.385554,0.19569 0.142538,0.02957 0.297159,0.01293 0.422391,-0.06129 0.06262,-0.03711 0.117209,-0.08815 0.156598,-0.149358 0.03939,-0.06121 0.06332,-0.132599 0.0666,-0.205311 0.0047,-0.105077 -0.0345,-0.210531 -0.102831,-0.290501 -0.06833,-0.07997 -0.164465,-0.134587 -0.26709,-0.157642 -0.102626,-0.02306 -0.21126,-0.01522 -0.311348,0.01712 -0.100088,0.03234 -0.191716,0.08867 -0.26962,0.159344 -0.12672,0.114955 -0.217744,0.269234 -0.254698,0.436288 -0.03695,0.167054 -0.01926,0.346111 0.0519,0.501705 0.07116,0.155593 0.195728,0.28658 0.348658,0.363295 0.15293,0.07671 0.333294,0.09817 0.499391,0.05713 0.16776,-0.04146 0.314029,-0.142068 0.453064,-0.24469 0.139035,-0.102622 0.277783,-0.210745 0.439667,-0.271205 0.08094,-0.03023 0.167228,-0.04798 0.253582,-0.04506 0.08635,0.0029 0.172814,0.02715 0.244467,0.07543 0.07165,0.04828 0.1276,0.121402 0.149029,0.205105 0.02143,0.0837 0.0064,0.177394 -0.04555,0.246461 -0.0484,0.06439 -0.124594,0.103773 -0.203264,0.121107 -0.07867,0.01733 -0.160338,0.01452 -0.240601,0.0076 -0.08026,-0.0069 -0.160451,-0.0177 -0.240992,-0.01613 -0.08054,0.0016 -0.162635,0.01633 -0.232072,0.05717 -0.06975,0.04102 -0.122919,0.10633 -0.160069,0.178212 -0.03715,0.07188 -0.05934,0.150497 -0.07765,0.229312 -0.04139,0.178115 -0.06419,0.360543 -0.06792,0.543365"
         id="path78"
         inkscape:path-effect="#path-effect80"
         inkscape:original-d="m 16.640562,7.4373127 c 0,0 -0.294322,2.0376198 0.169802,3.0224693 0.464125,0.98485 0.339604,-1.1546511 0.509405,-1.7319767 0.169802,-0.5773257 -0.543365,0.7018467 -0.815048,1.0527701 -0.271683,0.3509236 0.860329,0.8376886 1.290493,1.2565326 0.430164,0.418844 0.860328,-0.611286 1.290492,-0.916929 0.430165,-0.3056433 -0.905609,0.294323 -1.358413,0.441484 -0.452804,0.147162 0.849008,1.01881 1.290493,1.528215 0.441484,0.509405 0.328283,-0.792408 0.475444,-1.188612 0.147162,-0.396203 -0.543365,0.464125 -0.849008,0.713167 -0.305643,0.249043 1.165972,0.871649 1.765937,1.290493 0.599966,0.418844 0.124522,-0.407524 0.203762,-0.611286 0.07924,-0.203762 -0.384883,0.271683 -0.577325,0.407524 -0.192442,0.135841 0.283002,0.747127 0.407524,1.154651 0.124521,0.407524 0.871648,0.09056 1.324452,0.101881 0.452805,0.01132 -0.633925,-0.181121 -0.950889,-0.271682 -0.316963,-0.09056 0.441485,0.882968 0.645247,1.358413 0.203762,0.475445 0.962209,0 1.494254,-0.03396 0.532045,-0.03396 -0.566005,0.135841 -0.916929,0.169801 -0.350923,0.03396 -0.203762,0.271683 -0.237722,0.407524 -0.03396,0.135842 -0.02264,0.339604 -0.06792,0.543365"
         sodipodi:nodetypes="csssssssssssssssssssc"
         transform="matrix(0.69318639,1.1137718,-0.69200913,1.1156666,22.514093,-18.256613)" />
      <path
         style="fill:none;fill-opacity:1;stroke:#000000;stroke-width:0.264583;stroke-dasharray:none"
         d="m 16.640562,7.4373127 c -0.382887,0.039484 -0.747949,0.231305 -0.997669,0.5242234 -0.249721,0.2929184 -0.381369,0.6837308 -0.359778,1.0680422 0.02159,0.3843115 0.196184,0.7579193 0.477141,1.0210237 0.280958,0.263105 0.665208,0.41283 1.050108,0.40918 0.229377,-0.0022 0.460161,-0.05819 0.656907,-0.176129 0.196747,-0.117938 0.357646,-0.2996116 0.435766,-0.5152868 C 17.981158,9.552691 17.972207,9.3037469 17.864554,9.10119 17.810727,8.9999115 17.73325,8.911024 17.639045,8.8456021 17.544839,8.7801803 17.433961,8.738516 17.319769,8.7278053 c -0.127275,-0.011938 -0.257345,0.014766 -0.371608,0.072084 -0.114263,0.057319 -0.212696,0.1447079 -0.286719,0.248929 -0.148045,0.2084423 -0.194505,0.478897 -0.156721,0.7317568 0.04701,0.3146126 0.218368,0.6042226 0.45301,0.8190106 0.234643,0.214788 0.529589,0.357568 0.837483,0.437522 0.160995,0.04181 0.327317,0.06719 0.493508,0.0603 0.166192,-0.0069 0.332589,-0.047 0.476934,-0.129659 0.144344,-0.08266 0.265554,-0.209454 0.328657,-0.363353 0.0631,-0.1539 0.06457,-0.334842 -0.0086,-0.484214 -0.06865,-0.1401309 -0.199955,-0.2461049 -0.348928,-0.2925456 -0.148974,-0.046441 -0.313628,-0.034963 -0.458516,0.022979 -0.144888,0.057942 -0.270056,0.160763 -0.363018,0.286094 -0.09296,0.125331 -0.154438,0.272554 -0.187951,0.424957 -0.08321,0.378432 0.01305,0.794099 0.260869,1.09196 0.24782,0.29786 0.643511,0.46869 1.029624,0.436255 0.145887,-0.01225 0.290473,-0.05244 0.416844,-0.126357 0.126372,-0.07392 0.233881,-0.182481 0.29758,-0.314297 0.0637,-0.131817 0.08166,-0.287025 0.04019,-0.42743 -0.04147,-0.140404 -0.14434,-0.26348 -0.279168,-0.320528 -0.09899,-0.04188 -0.211836,-0.04764 -0.316169,-0.02181 -0.104333,0.02583 -0.200064,0.08237 -0.277416,0.156996 -0.154703,0.149257 -0.232173,0.364274 -0.255423,0.577979 -0.02432,0.223577 0.0061,0.453366 0.09139,0.66148 0.08525,0.208113 0.225461,0.393941 0.404489,0.530057 0.179027,0.136116 0.396625,0.221765 0.620742,0.240474 0.224117,0.01871 0.45396,-0.0301 0.649318,-0.141518 0.10907,-0.06221 0.210573,-0.147748 0.260427,-0.262988 0.02493,-0.05762 0.03601,-0.121794 0.02739,-0.183981 -0.0086,-0.06219 -0.0376,-0.122089 -0.08406,-0.164317 -0.05405,-0.04913 -0.129607,-0.07198 -0.202458,-0.06675 -0.07285,0.0052 -0.142574,0.03728 -0.198032,0.08481 -0.05546,0.04753 -0.0971,0.109946 -0.125407,0.177276 -0.02831,0.06733 -0.04367,0.139566 -0.05143,0.212192 -0.02219,0.207828 0.01751,0.419305 0.09393,0.613847 0.07641,0.194542 0.188605,0.373288 0.313599,0.540804 0.08706,0.116672 0.181297,0.229179 0.293312,0.322153 0.112014,0.09297 0.243016,0.166124 0.385554,0.19569 0.142538,0.02957 0.297159,0.01293 0.422391,-0.06129 0.06262,-0.03711 0.117209,-0.08815 0.156598,-0.149358 0.03939,-0.06121 0.06332,-0.132599 0.0666,-0.205311 0.0047,-0.105077 -0.0345,-0.210531 -0.102831,-0.290501 -0.06833,-0.07997 -0.164465,-0.134587 -0.26709,-0.157642 -0.102626,-0.02306 -0.21126,-0.01522 -0.311348,0.01712 -0.100088,0.03234 -0.191716,0.08867 -0.26962,0.159344 -0.12672,0.114955 -0.217744,0.269234 -0.254698,0.436288 -0.03695,0.167054 -0.01926,0.346111 0.0519,0.501705 0.07116,0.155593 0.195728,0.28658 0.348658,0.363295 0.15293,0.07671 0.333294,0.09817 0.499391,0.05713 0.16776,-0.04146 0.314029,-0.142068 0.453064,-0.24469 0.139035,-0.102622 0.277783,-0.210745 0.439667,-0.271205 0.08094,-0.03023 0.167228,-0.04798 0.253582,-0.04506 0.08635,0.0029 0.172814,0.02715 0.244467,0.07543 0.07165,0.04828 0.1276,0.121402 0.149029,0.205105 0.02143,0.0837 0.0064,0.177394 -0.04555,0.246461 -0.0484,0.06439 -0.124594,0.103773 -0.203264,0.121107 -0.07867,0.01733 -0.160338,0.01452 -0.240601,0.0076 -0.08026,-0.0069 -0.160451,-0.0177 -0.240992,-0.01613 -0.08054,0.0016 -0.162635,0.01633 -0.232072,0.05717 -0.06975,0.04102 -0.122919,0.10633 -0.160069,0.178212 -0.03715,0.07188 -0.05934,0.150497 -0.07765,0.229312 -0.04139,0.178115 -0.06419,0.360543 -0.06792,0.543365"
         id="path80"
         inkscape:path-effect="#path-effect82"
         inkscape:original-d="m 16.640562,7.4373127 c 0,0 -0.294322,2.0376198 0.169802,3.0224693 0.464125,0.98485 0.339604,-1.1546511 0.509405,-1.7319767 0.169802,-0.5773257 -0.543365,0.7018467 -0.815048,1.0527701 -0.271683,0.3509236 0.860329,0.8376886 1.290493,1.2565326 0.430164,0.418844 0.860328,-0.611286 1.290492,-0.916929 0.430165,-0.3056433 -0.905609,0.294323 -1.358413,0.441484 -0.452804,0.147162 0.849008,1.01881 1.290493,1.528215 0.441484,0.509405 0.328283,-0.792408 0.475444,-1.188612 0.147162,-0.396203 -0.543365,0.464125 -0.849008,0.713167 -0.305643,0.249043 1.165972,0.871649 1.765937,1.290493 0.599966,0.418844 0.124522,-0.407524 0.203762,-0.611286 0.07924,-0.203762 -0.384883,0.271683 -0.577325,0.407524 -0.192442,0.135841 0.283002,0.747127 0.407524,1.154651 0.124521,0.407524 0.871648,0.09056 1.324452,0.101881 0.452805,0.01132 -0.633925,-0.181121 -0.950889,-0.271682 -0.316963,-0.09056 0.441485,0.882968 0.645247,1.358413 0.203762,0.475445 0.962209,0 1.494254,-0.03396 0.532045,-0.03396 -0.566005,0.135841 -0.916929,0.169801 -0.350923,0.03396 -0.203762,0.271683 -0.237722,0.407524 -0.03396,0.135842 -0.02264,0.339604 -0.06792,0.543365"
         sodipodi:nodetypes="csssssssssssssssssssc"
         transform="matrix(-0.57989927,0.69936512,0.82035764,0.45652842,47.742947,-6.0631433)" />
    </g>
    <g
       inkscape:groupmode="layer"
       id="layer10"
       inkscape:label="Hat"
       style="display:inline">
      <ellipse
         style="fill:#616162;fill-opacity:1;stroke:#000000;stroke-width:0.31972"
         id="path2"
         cx="34.843708"
         cy="9.3893099"
         rx="12.627588"
         ry="4.8471885" />
      <path
         style="fill:#616162;fill-opacity:1;stroke:#000000;stroke-width:0.264583"
         d="m 25.406368,8.9330521 c 0,0 2.820938,2.5508829 9.269054,2.5690149 6.448115,0.01813 9.125349,-2.617042 9.125349,-2.617042 L 42.071793,2.5454395 27.711672,1.777005 Z"
         id="path3"
         sodipodi:nodetypes="czcccc" />
      <path
         style="fill:#2b2b33;fill-opacity:1;stroke:#000000;stroke-width:0.0679206"
         d="M 33.156476,11.279453 C 30.386905,11.081541 27.746459,10.301529 26.033325,9.1752086 l -0.429837,-0.2826017 0.23577,-0.7567805 c 0.129675,-0.4162292 0.256979,-0.7804265 0.282901,-0.8093272 0.02593,-0.028901 0.549187,0.1899239 1.162814,0.4862773 3.739652,1.8060726 7.057231,2.3070975 10.583938,1.5983988 1.472324,-0.2958658 3.357649,-1.0012173 4.712197,-1.7629608 0.296465,-0.1667209 0.559557,-0.3031289 0.584644,-0.3031289 0.04353,0 0.418801,1.3173372 0.416354,1.4615462 -0.0021,0.1233435 -1.03378,0.7667402 -1.835033,1.1443929 -2.309093,1.0883393 -5.356288,1.5595493 -8.590597,1.3284283 z"
         id="path6" />
      <path
         style="fill:none;stroke:#000000;stroke-width:0.264583"
         d="m 26.126775,7.035979 c 5.521845,3.09057 11.192066,3.609284 17.09767,0.048027"
         id="path4"
         sodipodi:nodetypes="cc" />
      <path
         style="fill:none;stroke:#000000;stroke-width:0.264583"
         d="m 35.972343,3.1217655 c 0,0 2.689521,1.8730592 5.042852,1.8010185"
         id="path5" />
    </g>
  </g>
</svg>
