<?xml version="1.0" encoding="UTF-8" standalone="no"?>
<!-- Created with Inkscape (http://www.inkscape.org/) -->

<svg
   width="100.96453"
   height="98.457672"
   viewBox="0 0 26.713529 26.050256"
   version="1.1"
   id="svg1"
   xmlns="http://www.w3.org/2000/svg"
   xmlns:svg="http://www.w3.org/2000/svg">
  <defs
     id="defs1" />
  <g
     id="layer2"
     style="display:inline"
     transform="translate(-21.733291,-1.6394579)">
    <g
       id="layer9"
       style="display:inline"
       transform="translate(-0.09605432,0.96054324)">
      <path
         style="display:inline;fill:#c6c2a9;fill-opacity:1;stroke:#000000;stroke-width:0.264583;stroke-dasharray:none"
         d="M 22.885588,12.940161 C 25.162908,4.8590567 37.067384,3.3203423 43.570341,7.4461073 48.635784,10.659848 47.507534,22.830245 41.413605,25.331516 28.953039,30.445992 21.229136,18.818105 22.885588,12.940161 Z"
         id="path19" />
    </g>
    <g
       id="layer13"
       style="display:inline">
      <path
         style="fill:none;fill-opacity:1;stroke:#000000;stroke-width:0.264583;stroke-opacity:1"
         d="m 36.245499,22.11783 c 0,0 1.799897,2.886628 4.346924,0.03396"
         id="path16" />
    </g>
    <g
       id="g87"
       transform="matrix(-0.99999999,0,0,0.99999999,82.053798,2.1612223)"
       style="display:inline">
      <ellipse
         style="fill:#dcdcdc;fill-opacity:1;stroke:#000000;stroke-width:0.264583;stroke-dasharray:none"
         id="ellipse86"
         cx="-47.066013"
         cy="15.428726"
         transform="scale(-1,1)"
         rx="1.9210865"
         ry="2.0531611" />
      <ellipse
         style="display:inline;fill:#5ac5ba;fill-opacity:1;stroke:#000000;stroke-width:0.388857;stroke-dasharray:none;stroke-opacity:1"
         id="ellipse87"
         cx="-45.664421"
         cy="17.254435"
         rx="1.0804209"
         ry="0.94419271"
         transform="matrix(-0.99929593,0.03751856,0.03751856,0.99929593,0,0)" />
    </g>
    <g
       id="g1"
       transform="matrix(-1,0,0,1,82.053798,2.1612223)"
       style="display:inline">
      <ellipse
         style="fill:#dcdcdc;fill-opacity:1;stroke:#000000;stroke-width:0.264583;stroke-dasharray:none"
         id="path85"
         cx="-40.358849"
         cy="15.377786"
         transform="scale(-1,1)"
         rx="1.9210865"
         ry="2.0531611" />
      <ellipse
         style="display:inline;fill:#5ac5ba;fill-opacity:1;stroke:#000000;stroke-width:0.388857;stroke-dasharray:none;stroke-opacity:1"
         id="ellipse1"
         cx="-38.968349"
         cy="16.833109"
         rx="1.0804209"
         ry="0.94419271"
         transform="matrix(-0.99929593,0.03751856,0.03751856,0.99929593,0,0)" />
    </g>
    <g
       id="layer14">
      <path
         style="fill:none;fill-opacity:1;stroke:#000000;stroke-width:0.264583;stroke-dasharray:none"
         d="m 16.640562,7.4373127 c -0.382887,0.039484 -0.747949,0.231305 -0.997669,0.5242234 -0.249721,0.2929184 -0.381369,0.6837308 -0.359778,1.0680422 0.02159,0.3843115 0.196184,0.7579193 0.477141,1.0210237 0.280958,0.263105 0.665208,0.41283 1.050108,0.40918 0.229377,-0.0022 0.460161,-0.05819 0.656907,-0.176129 0.196747,-0.117938 0.357646,-0.2996116 0.435766,-0.5152868 C 17.981158,9.552691 17.972207,9.3037469 17.864554,9.10119 17.810727,8.9999115 17.73325,8.911024 17.639045,8.8456021 17.544839,8.7801803 17.433961,8.738516 17.319769,8.7278053 c -0.127275,-0.011938 -0.257345,0.014766 -0.371608,0.072084 -0.114263,0.057319 -0.212696,0.1447079 -0.286719,0.248929 -0.148045,0.2084423 -0.194505,0.478897 -0.156721,0.7317568 0.04701,0.3146126 0.218368,0.6042226 0.45301,0.8190106 0.234643,0.214788 0.529589,0.357568 0.837483,0.437522 0.160995,0.04181 0.327317,0.06719 0.493508,0.0603 0.166192,-0.0069 0.332589,-0.047 0.476934,-0.129659 0.144344,-0.08266 0.265554,-0.209454 0.328657,-0.363353 0.0631,-0.1539 0.06457,-0.334842 -0.0086,-0.484214 -0.06865,-0.1401309 -0.199955,-0.2461049 -0.348928,-0.2925456 -0.148974,-0.046441 -0.313628,-0.034963 -0.458516,0.022979 -0.144888,0.057942 -0.270056,0.160763 -0.363018,0.286094 -0.09296,0.125331 -0.154438,0.272554 -0.187951,0.424957 -0.08321,0.378432 0.01305,0.794099 0.260869,1.09196 0.24782,0.29786 0.643511,0.46869 1.029624,0.436255 0.145887,-0.01225 0.290473,-0.05244 0.416844,-0.126357 0.126372,-0.07392 0.233881,-0.182481 0.29758,-0.314297 0.0637,-0.131817 0.08166,-0.287025 0.04019,-0.42743 -0.04147,-0.140404 -0.14434,-0.26348 -0.279168,-0.320528 -0.09899,-0.04188 -0.211836,-0.04764 -0.316169,-0.02181 -0.104333,0.02583 -0.200064,0.08237 -0.277416,0.156996 -0.154703,0.149257 -0.232173,0.364274 -0.255423,0.577979 -0.02432,0.223577 0.0061,0.453366 0.09139,0.66148 0.08525,0.208113 0.225461,0.393941 0.404489,0.530057 0.179027,0.136116 0.396625,0.221765 0.620742,0.240474 0.224117,0.01871 0.45396,-0.0301 0.649318,-0.141518 0.10907,-0.06221 0.210573,-0.147748 0.260427,-0.262988 0.02493,-0.05762 0.03601,-0.121794 0.02739,-0.183981 -0.0086,-0.06219 -0.0376,-0.122089 -0.08406,-0.164317 -0.05405,-0.04913 -0.129607,-0.07198 -0.202458,-0.06675 -0.07285,0.0052 -0.142574,0.03728 -0.198032,0.08481 -0.05546,0.04753 -0.0971,0.109946 -0.125407,0.177276 -0.02831,0.06733 -0.04367,0.139566 -0.05143,0.212192 -0.02219,0.207828 0.01751,0.419305 0.09393,0.613847 0.07641,0.194542 0.188605,0.373288 0.313599,0.540804 0.08706,0.116672 0.181297,0.229179 0.293312,0.322153 0.112014,0.09297 0.243016,0.166124 0.385554,0.19569 0.142538,0.02957 0.297159,0.01293 0.422391,-0.06129 0.06262,-0.03711 0.117209,-0.08815 0.156598,-0.149358 0.03939,-0.06121 0.06332,-0.132599 0.0666,-0.205311 0.0047,-0.105077 -0.0345,-0.210531 -0.102831,-0.290501 -0.06833,-0.07997 -0.164465,-0.134587 -0.26709,-0.157642 -0.102626,-0.02306 -0.21126,-0.01522 -0.311348,0.01712 -0.100088,0.03234 -0.191716,0.08867 -0.26962,0.159344 -0.12672,0.114955 -0.217744,0.269234 -0.254698,0.436288 -0.03695,0.167054 -0.01926,0.346111 0.0519,0.501705 0.07116,0.155593 0.195728,0.28658 0.348658,0.363295 0.15293,0.07671 0.333294,0.09817 0.499391,0.05713 0.16776,-0.04146 0.314029,-0.142068 0.453064,-0.24469 0.139035,-0.102622 0.277783,-0.210745 0.439667,-0.271205 0.08094,-0.03023 0.167228,-0.04798 0.253582,-0.04506 0.08635,0.0029 0.172814,0.02715 0.244467,0.07543 0.07165,0.04828 0.1276,0.121402 0.149029,0.205105 0.02143,0.0837 0.0064,0.177394 -0.04555,0.246461 -0.0484,0.06439 -0.124594,0.103773 -0.203264,0.121107 -0.07867,0.01733 -0.160338,0.01452 -0.240601,0.0076 -0.08026,-0.0069 -0.160451,-0.0177 -0.240992,-0.01613 -0.08054,0.0016 -0.162635,0.01633 -0.232072,0.05717 -0.06975,0.04102 -0.122919,0.10633 -0.160069,0.178212 -0.03715,0.07188 -0.05934,0.150497 -0.07765,0.229312 -0.04139,0.178115 -0.06419,0.360543 -0.06792,0.543365"
         id="path72"
         transform="matrix(0.71592686,0.52291908,-0.71471097,0.52380868,17.794732,-0.75205086)" />
      <path
         style="fill:none;fill-opacity:1;stroke:#000000;stroke-width:0.264583;stroke-dasharray:none"
         d="m 16.640562,7.4373127 c -0.382887,0.039484 -0.747949,0.231305 -0.997669,0.5242234 -0.249721,0.2929184 -0.381369,0.6837308 -0.359778,1.0680422 0.02159,0.3843115 0.196184,0.7579193 0.477141,1.0210237 0.280958,0.263105 0.665208,0.41283 1.050108,0.40918 0.229377,-0.0022 0.460161,-0.05819 0.656907,-0.176129 0.196747,-0.117938 0.357646,-0.2996116 0.435766,-0.5152868 C 17.981158,9.552691 17.972207,9.3037469 17.864554,9.10119 17.810727,8.9999115 17.73325,8.911024 17.639045,8.8456021 17.544839,8.7801803 17.433961,8.738516 17.319769,8.7278053 c -0.127275,-0.011938 -0.257345,0.014766 -0.371608,0.072084 -0.114263,0.057319 -0.212696,0.1447079 -0.286719,0.248929 -0.148045,0.2084423 -0.194505,0.478897 -0.156721,0.7317568 0.04701,0.3146126 0.218368,0.6042226 0.45301,0.8190106 0.234643,0.214788 0.529589,0.357568 0.837483,0.437522 0.160995,0.04181 0.327317,0.06719 0.493508,0.0603 0.166192,-0.0069 0.332589,-0.047 0.476934,-0.129659 0.144344,-0.08266 0.265554,-0.209454 0.328657,-0.363353 0.0631,-0.1539 0.06457,-0.334842 -0.0086,-0.484214 -0.06865,-0.1401309 -0.199955,-0.2461049 -0.348928,-0.2925456 -0.148974,-0.046441 -0.313628,-0.034963 -0.458516,0.022979 -0.144888,0.057942 -0.270056,0.160763 -0.363018,0.286094 -0.09296,0.125331 -0.154438,0.272554 -0.187951,0.424957 -0.08321,0.378432 0.01305,0.794099 0.260869,1.09196 0.24782,0.29786 0.643511,0.46869 1.029624,0.436255 0.145887,-0.01225 0.290473,-0.05244 0.416844,-0.126357 0.126372,-0.07392 0.233881,-0.182481 0.29758,-0.314297 0.0637,-0.131817 0.08166,-0.287025 0.04019,-0.42743 -0.04147,-0.140404 -0.14434,-0.26348 -0.279168,-0.320528 -0.09899,-0.04188 -0.211836,-0.04764 -0.316169,-0.02181 -0.104333,0.02583 -0.200064,0.08237 -0.277416,0.156996 -0.154703,0.149257 -0.232173,0.364274 -0.255423,0.577979 -0.02432,0.223577 0.0061,0.453366 0.09139,0.66148 0.08525,0.208113 0.225461,0.393941 0.404489,0.530057 0.179027,0.136116 0.396625,0.221765 0.620742,0.240474 0.224117,0.01871 0.45396,-0.0301 0.649318,-0.141518 0.10907,-0.06221 0.210573,-0.147748 0.260427,-0.262988 0.02493,-0.05762 0.03601,-0.121794 0.02739,-0.183981 -0.0086,-0.06219 -0.0376,-0.122089 -0.08406,-0.164317 -0.05405,-0.04913 -0.129607,-0.07198 -0.202458,-0.06675 -0.07285,0.0052 -0.142574,0.03728 -0.198032,0.08481 -0.05546,0.04753 -0.0971,0.109946 -0.125407,0.177276 -0.02831,0.06733 -0.04367,0.139566 -0.05143,0.212192 -0.02219,0.207828 0.01751,0.419305 0.09393,0.613847 0.07641,0.194542 0.188605,0.373288 0.313599,0.540804 0.08706,0.116672 0.181297,0.229179 0.293312,0.322153 0.112014,0.09297 0.243016,0.166124 0.385554,0.19569 0.142538,0.02957 0.297159,0.01293 0.422391,-0.06129 0.06262,-0.03711 0.117209,-0.08815 0.156598,-0.149358 0.03939,-0.06121 0.06332,-0.132599 0.0666,-0.205311 0.0047,-0.105077 -0.0345,-0.210531 -0.102831,-0.290501 -0.06833,-0.07997 -0.164465,-0.134587 -0.26709,-0.157642 -0.102626,-0.02306 -0.21126,-0.01522 -0.311348,0.01712 -0.100088,0.03234 -0.191716,0.08867 -0.26962,0.159344 -0.12672,0.114955 -0.217744,0.269234 -0.254698,0.436288 -0.03695,0.167054 -0.01926,0.346111 0.0519,0.501705 0.07116,0.155593 0.195728,0.28658 0.348658,0.363295 0.15293,0.07671 0.333294,0.09817 0.499391,0.05713 0.16776,-0.04146 0.314029,-0.142068 0.453064,-0.24469 0.139035,-0.102622 0.277783,-0.210745 0.439667,-0.271205 0.08094,-0.03023 0.167228,-0.04798 0.253582,-0.04506 0.08635,0.0029 0.172814,0.02715 0.244467,0.07543 0.07165,0.04828 0.1276,0.121402 0.149029,0.205105 0.02143,0.0837 0.0064,0.177394 -0.04555,0.246461 -0.0484,0.06439 -0.124594,0.103773 -0.203264,0.121107 -0.07867,0.01733 -0.160338,0.01452 -0.240601,0.0076 -0.08026,-0.0069 -0.160451,-0.0177 -0.240992,-0.01613 -0.08054,0.0016 -0.162635,0.01633 -0.232072,0.05717 -0.06975,0.04102 -0.122919,0.10633 -0.160069,0.178212 -0.03715,0.07188 -0.05934,0.150497 -0.07765,0.229312 -0.04139,0.178115 -0.06419,0.360543 -0.06792,0.543365"
         id="path73"
         transform="rotate(44.951305,16.407378,20.119582)" />
      <path
         style="fill:none;fill-opacity:1;stroke:#000000;stroke-width:0.264583;stroke-dasharray:none"
         d="m 16.640562,7.4373127 c -0.382887,0.039484 -0.747949,0.231305 -0.997669,0.5242234 -0.249721,0.2929184 -0.381369,0.6837308 -0.359778,1.0680422 0.02159,0.3843115 0.196184,0.7579193 0.477141,1.0210237 0.280958,0.263105 0.665208,0.41283 1.050108,0.40918 0.229377,-0.0022 0.460161,-0.05819 0.656907,-0.176129 0.196747,-0.117938 0.357646,-0.2996116 0.435766,-0.5152868 C 17.981158,9.552691 17.972207,9.3037469 17.864554,9.10119 17.810727,8.9999115 17.73325,8.911024 17.639045,8.8456021 17.544839,8.7801803 17.433961,8.738516 17.319769,8.7278053 c -0.127275,-0.011938 -0.257345,0.014766 -0.371608,0.072084 -0.114263,0.057319 -0.212696,0.1447079 -0.286719,0.248929 -0.148045,0.2084423 -0.194505,0.478897 -0.156721,0.7317568 0.04701,0.3146126 0.218368,0.6042226 0.45301,0.8190106 0.234643,0.214788 0.529589,0.357568 0.837483,0.437522 0.160995,0.04181 0.327317,0.06719 0.493508,0.0603 0.166192,-0.0069 0.332589,-0.047 0.476934,-0.129659 0.144344,-0.08266 0.265554,-0.209454 0.328657,-0.363353 0.0631,-0.1539 0.06457,-0.334842 -0.0086,-0.484214 -0.06865,-0.1401309 -0.199955,-0.2461049 -0.348928,-0.2925456 -0.148974,-0.046441 -0.313628,-0.034963 -0.458516,0.022979 -0.144888,0.057942 -0.270056,0.160763 -0.363018,0.286094 -0.09296,0.125331 -0.154438,0.272554 -0.187951,0.424957 -0.08321,0.378432 0.01305,0.794099 0.260869,1.09196 0.24782,0.29786 0.643511,0.46869 1.029624,0.436255 0.145887,-0.01225 0.290473,-0.05244 0.416844,-0.126357 0.126372,-0.07392 0.233881,-0.182481 0.29758,-0.314297 0.0637,-0.131817 0.08166,-0.287025 0.04019,-0.42743 -0.04147,-0.140404 -0.14434,-0.26348 -0.279168,-0.320528 -0.09899,-0.04188 -0.211836,-0.04764 -0.316169,-0.02181 -0.104333,0.02583 -0.200064,0.08237 -0.277416,0.156996 -0.154703,0.149257 -0.232173,0.364274 -0.255423,0.577979 -0.02432,0.223577 0.0061,0.453366 0.09139,0.66148 0.08525,0.208113 0.225461,0.393941 0.404489,0.530057 0.179027,0.136116 0.396625,0.221765 0.620742,0.240474 0.224117,0.01871 0.45396,-0.0301 0.649318,-0.141518 0.10907,-0.06221 0.210573,-0.147748 0.260427,-0.262988 0.02493,-0.05762 0.03601,-0.121794 0.02739,-0.183981 -0.0086,-0.06219 -0.0376,-0.122089 -0.08406,-0.164317 -0.05405,-0.04913 -0.129607,-0.07198 -0.202458,-0.06675 -0.07285,0.0052 -0.142574,0.03728 -0.198032,0.08481 -0.05546,0.04753 -0.0971,0.109946 -0.125407,0.177276 -0.02831,0.06733 -0.04367,0.139566 -0.05143,0.212192 -0.02219,0.207828 0.01751,0.419305 0.09393,0.613847 0.07641,0.194542 0.188605,0.373288 0.313599,0.540804 0.08706,0.116672 0.181297,0.229179 0.293312,0.322153 0.112014,0.09297 0.243016,0.166124 0.385554,0.19569 0.142538,0.02957 0.297159,0.01293 0.422391,-0.06129 0.06262,-0.03711 0.117209,-0.08815 0.156598,-0.149358 0.03939,-0.06121 0.06332,-0.132599 0.0666,-0.205311 0.0047,-0.105077 -0.0345,-0.210531 -0.102831,-0.290501 -0.06833,-0.07997 -0.164465,-0.134587 -0.26709,-0.157642 -0.102626,-0.02306 -0.21126,-0.01522 -0.311348,0.01712 -0.100088,0.03234 -0.191716,0.08867 -0.26962,0.159344 -0.12672,0.114955 -0.217744,0.269234 -0.254698,0.436288 -0.03695,0.167054 -0.01926,0.346111 0.0519,0.501705 0.07116,0.155593 0.195728,0.28658 0.348658,0.363295 0.15293,0.07671 0.333294,0.09817 0.499391,0.05713 0.16776,-0.04146 0.314029,-0.142068 0.453064,-0.24469 0.139035,-0.102622 0.277783,-0.210745 0.439667,-0.271205 0.08094,-0.03023 0.167228,-0.04798 0.253582,-0.04506 0.08635,0.0029 0.172814,0.02715 0.244467,0.07543 0.07165,0.04828 0.1276,0.121402 0.149029,0.205105 0.02143,0.0837 0.0064,0.177394 -0.04555,0.246461 -0.0484,0.06439 -0.124594,0.103773 -0.203264,0.121107 -0.07867,0.01733 -0.160338,0.01452 -0.240601,0.0076 -0.08026,-0.0069 -0.160451,-0.0177 -0.240992,-0.01613 -0.08054,0.0016 -0.162635,0.01633 -0.232072,0.05717 -0.06975,0.04102 -0.122919,0.10633 -0.160069,0.178212 -0.03715,0.07188 -0.05934,0.150497 -0.07765,0.229312 -0.04139,0.178115 -0.06419,0.360543 -0.06792,0.543365"
         id="path74"
         transform="matrix(0.71592686,0.52291908,-0.71471097,0.52380868,20.171955,-2.9594724)" />
      <path
         style="fill:none;fill-opacity:1;stroke:#000000;stroke-width:0.264583;stroke-dasharray:none"
         d="m 16.640562,7.4373127 c -0.382887,0.039484 -0.747949,0.231305 -0.997669,0.5242234 -0.249721,0.2929184 -0.381369,0.6837308 -0.359778,1.0680422 0.02159,0.3843115 0.196184,0.7579193 0.477141,1.0210237 0.280958,0.263105 0.665208,0.41283 1.050108,0.40918 0.229377,-0.0022 0.460161,-0.05819 0.656907,-0.176129 0.196747,-0.117938 0.357646,-0.2996116 0.435766,-0.5152868 C 17.981158,9.552691 17.972207,9.3037469 17.864554,9.10119 17.810727,8.9999115 17.73325,8.911024 17.639045,8.8456021 17.544839,8.7801803 17.433961,8.738516 17.319769,8.7278053 c -0.127275,-0.011938 -0.257345,0.014766 -0.371608,0.072084 -0.114263,0.057319 -0.212696,0.1447079 -0.286719,0.248929 -0.148045,0.2084423 -0.194505,0.478897 -0.156721,0.7317568 0.04701,0.3146126 0.218368,0.6042226 0.45301,0.8190106 0.234643,0.214788 0.529589,0.357568 0.837483,0.437522 0.160995,0.04181 0.327317,0.06719 0.493508,0.0603 0.166192,-0.0069 0.332589,-0.047 0.476934,-0.129659 0.144344,-0.08266 0.265554,-0.209454 0.328657,-0.363353 0.0631,-0.1539 0.06457,-0.334842 -0.0086,-0.484214 -0.06865,-0.1401309 -0.199955,-0.2461049 -0.348928,-0.2925456 -0.148974,-0.046441 -0.313628,-0.034963 -0.458516,0.022979 -0.144888,0.057942 -0.270056,0.160763 -0.363018,0.286094 -0.09296,0.125331 -0.154438,0.272554 -0.187951,0.424957 -0.08321,0.378432 0.01305,0.794099 0.260869,1.09196 0.24782,0.29786 0.643511,0.46869 1.029624,0.436255 0.145887,-0.01225 0.290473,-0.05244 0.416844,-0.126357 0.126372,-0.07392 0.233881,-0.182481 0.29758,-0.314297 0.0637,-0.131817 0.08166,-0.287025 0.04019,-0.42743 -0.04147,-0.140404 -0.14434,-0.26348 -0.279168,-0.320528 -0.09899,-0.04188 -0.211836,-0.04764 -0.316169,-0.02181 -0.104333,0.02583 -0.200064,0.08237 -0.277416,0.156996 -0.154703,0.149257 -0.232173,0.364274 -0.255423,0.577979 -0.02432,0.223577 0.0061,0.453366 0.09139,0.66148 0.08525,0.208113 0.225461,0.393941 0.404489,0.530057 0.179027,0.136116 0.396625,0.221765 0.620742,0.240474 0.224117,0.01871 0.45396,-0.0301 0.649318,-0.141518 0.10907,-0.06221 0.210573,-0.147748 0.260427,-0.262988 0.02493,-0.05762 0.03601,-0.121794 0.02739,-0.183981 -0.0086,-0.06219 -0.0376,-0.122089 -0.08406,-0.164317 -0.05405,-0.04913 -0.129607,-0.07198 -0.202458,-0.06675 -0.07285,0.0052 -0.142574,0.03728 -0.198032,0.08481 -0.05546,0.04753 -0.0971,0.109946 -0.125407,0.177276 -0.02831,0.06733 -0.04367,0.139566 -0.05143,0.212192 -0.02219,0.207828 0.01751,0.419305 0.09393,0.613847 0.07641,0.194542 0.188605,0.373288 0.313599,0.540804 0.08706,0.116672 0.181297,0.229179 0.293312,0.322153 0.112014,0.09297 0.243016,0.166124 0.385554,0.19569 0.142538,0.02957 0.297159,0.01293 0.422391,-0.06129 0.06262,-0.03711 0.117209,-0.08815 0.156598,-0.149358 0.03939,-0.06121 0.06332,-0.132599 0.0666,-0.205311 0.0047,-0.105077 -0.0345,-0.210531 -0.102831,-0.290501 -0.06833,-0.07997 -0.164465,-0.134587 -0.26709,-0.157642 -0.102626,-0.02306 -0.21126,-0.01522 -0.311348,0.01712 -0.100088,0.03234 -0.191716,0.08867 -0.26962,0.159344 -0.12672,0.114955 -0.217744,0.269234 -0.254698,0.436288 -0.03695,0.167054 -0.01926,0.346111 0.0519,0.501705 0.07116,0.155593 0.195728,0.28658 0.348658,0.363295 0.15293,0.07671 0.333294,0.09817 0.499391,0.05713 0.16776,-0.04146 0.314029,-0.142068 0.453064,-0.24469 0.139035,-0.102622 0.277783,-0.210745 0.439667,-0.271205 0.08094,-0.03023 0.167228,-0.04798 0.253582,-0.04506 0.08635,0.0029 0.172814,0.02715 0.244467,0.07543 0.07165,0.04828 0.1276,0.121402 0.149029,0.205105 0.02143,0.0837 0.0064,0.177394 -0.04555,0.246461 -0.0484,0.06439 -0.124594,0.103773 -0.203264,0.121107 -0.07867,0.01733 -0.160338,0.01452 -0.240601,0.0076 -0.08026,-0.0069 -0.160451,-0.0177 -0.240992,-0.01613 -0.08054,0.0016 -0.162635,0.01633 -0.232072,0.05717 -0.06975,0.04102 -0.122919,0.10633 -0.160069,0.178212 -0.03715,0.07188 -0.05934,0.150497 -0.07765,0.229312 -0.04139,0.178115 -0.06419,0.360543 -0.06792,0.543365"
         id="path76"
         transform="matrix(0.69978688,0.91736382,-0.6985984,0.91892446,20.631277,-12.240382)" />
      <path
         style="fill:none;fill-opacity:1;stroke:#000000;stroke-width:0.264583;stroke-dasharray:none"
         d="m 16.640562,7.4373127 c -0.382887,0.039484 -0.747949,0.231305 -0.997669,0.5242234 -0.249721,0.2929184 -0.381369,0.6837308 -0.359778,1.0680422 0.02159,0.3843115 0.196184,0.7579193 0.477141,1.0210237 0.280958,0.263105 0.665208,0.41283 1.050108,0.40918 0.229377,-0.0022 0.460161,-0.05819 0.656907,-0.176129 0.196747,-0.117938 0.357646,-0.2996116 0.435766,-0.5152868 C 17.981158,9.552691 17.972207,9.3037469 17.864554,9.10119 17.810727,8.9999115 17.73325,8.911024 17.639045,8.8456021 17.544839,8.7801803 17.433961,8.738516 17.319769,8.7278053 c -0.127275,-0.011938 -0.257345,0.014766 -0.371608,0.072084 -0.114263,0.057319 -0.212696,0.1447079 -0.286719,0.248929 -0.148045,0.2084423 -0.194505,0.478897 -0.156721,0.7317568 0.04701,0.3146126 0.218368,0.6042226 0.45301,0.8190106 0.234643,0.214788 0.529589,0.357568 0.837483,0.437522 0.160995,0.04181 0.327317,0.06719 0.493508,0.0603 0.166192,-0.0069 0.332589,-0.047 0.476934,-0.129659 0.144344,-0.08266 0.265554,-0.209454 0.328657,-0.363353 0.0631,-0.1539 0.06457,-0.334842 -0.0086,-0.484214 -0.06865,-0.1401309 -0.199955,-0.2461049 -0.348928,-0.2925456 -0.148974,-0.046441 -0.313628,-0.034963 -0.458516,0.022979 -0.144888,0.057942 -0.270056,0.160763 -0.363018,0.286094 -0.09296,0.125331 -0.154438,0.272554 -0.187951,0.424957 -0.08321,0.378432 0.01305,0.794099 0.260869,1.09196 0.24782,0.29786 0.643511,0.46869 1.029624,0.436255 0.145887,-0.01225 0.290473,-0.05244 0.416844,-0.126357 0.126372,-0.07392 0.233881,-0.182481 0.29758,-0.314297 0.0637,-0.131817 0.08166,-0.287025 0.04019,-0.42743 -0.04147,-0.140404 -0.14434,-0.26348 -0.279168,-0.320528 -0.09899,-0.04188 -0.211836,-0.04764 -0.316169,-0.02181 -0.104333,0.02583 -0.200064,0.08237 -0.277416,0.156996 -0.154703,0.149257 -0.232173,0.364274 -0.255423,0.577979 -0.02432,0.223577 0.0061,0.453366 0.09139,0.66148 0.08525,0.208113 0.225461,0.393941 0.404489,0.530057 0.179027,0.136116 0.396625,0.221765 0.620742,0.240474 0.224117,0.01871 0.45396,-0.0301 0.649318,-0.141518 0.10907,-0.06221 0.210573,-0.147748 0.260427,-0.262988 0.02493,-0.05762 0.03601,-0.121794 0.02739,-0.183981 -0.0086,-0.06219 -0.0376,-0.122089 -0.08406,-0.164317 -0.05405,-0.04913 -0.129607,-0.07198 -0.202458,-0.06675 -0.07285,0.0052 -0.142574,0.03728 -0.198032,0.08481 -0.05546,0.04753 -0.0971,0.109946 -0.125407,0.177276 -0.02831,0.06733 -0.04367,0.139566 -0.05143,0.212192 -0.02219,0.207828 0.01751,0.419305 0.09393,0.613847 0.07641,0.194542 0.188605,0.373288 0.313599,0.540804 0.08706,0.116672 0.181297,0.229179 0.293312,0.322153 0.112014,0.09297 0.243016,0.166124 0.385554,0.19569 0.142538,0.02957 0.297159,0.01293 0.422391,-0.06129 0.06262,-0.03711 0.117209,-0.08815 0.156598,-0.149358 0.03939,-0.06121 0.06332,-0.132599 0.0666,-0.205311 0.0047,-0.105077 -0.0345,-0.210531 -0.102831,-0.290501 -0.06833,-0.07997 -0.164465,-0.134587 -0.26709,-0.157642 -0.102626,-0.02306 -0.21126,-0.01522 -0.311348,0.01712 -0.100088,0.03234 -0.191716,0.08867 -0.26962,0.159344 -0.12672,0.114955 -0.217744,0.269234 -0.254698,0.436288 -0.03695,0.167054 -0.01926,0.346111 0.0519,0.501705 0.07116,0.155593 0.195728,0.28658 0.348658,0.363295 0.15293,0.07671 0.333294,0.09817 0.499391,0.05713 0.16776,-0.04146 0.314029,-0.142068 0.453064,-0.24469 0.139035,-0.102622 0.277783,-0.210745 0.439667,-0.271205 0.08094,-0.03023 0.167228,-0.04798 0.253582,-0.04506 0.08635,0.0029 0.172814,0.02715 0.244467,0.07543 0.07165,0.04828 0.1276,0.121402 0.149029,0.205105 0.02143,0.0837 0.0064,0.177394 -0.04555,0.246461 -0.0484,0.06439 -0.124594,0.103773 -0.203264,0.121107 -0.07867,0.01733 -0.160338,0.01452 -0.240601,0.0076 -0.08026,-0.0069 -0.160451,-0.0177 -0.240992,-0.01613 -0.08054,0.0016 -0.162635,0.01633 -0.232072,0.05717 -0.06975,0.04102 -0.122919,0.10633 -0.160069,0.178212 -0.03715,0.07188 -0.05934,0.150497 -0.07765,0.229312 -0.04139,0.178115 -0.06419,0.360543 -0.06792,0.543365"
         id="path78"
         transform="matrix(0.69318639,1.1137718,-0.69200913,1.1156666,22.514093,-18.256613)" />
      <path
         style="fill:none;fill-opacity:1;stroke:#000000;stroke-width:0.264583;stroke-dasharray:none"
         d="m 16.640562,7.4373127 c -0.382887,0.039484 -0.747949,0.231305 -0.997669,0.5242234 -0.249721,0.2929184 -0.381369,0.6837308 -0.359778,1.0680422 0.02159,0.3843115 0.196184,0.7579193 0.477141,1.0210237 0.280958,0.263105 0.665208,0.41283 1.050108,0.40918 0.229377,-0.0022 0.460161,-0.05819 0.656907,-0.176129 0.196747,-0.117938 0.357646,-0.2996116 0.435766,-0.5152868 C 17.981158,9.552691 17.972207,9.3037469 17.864554,9.10119 17.810727,8.9999115 17.73325,8.911024 17.639045,8.8456021 17.544839,8.7801803 17.433961,8.738516 17.319769,8.7278053 c -0.127275,-0.011938 -0.257345,0.014766 -0.371608,0.072084 -0.114263,0.057319 -0.212696,0.1447079 -0.286719,0.248929 -0.148045,0.2084423 -0.194505,0.478897 -0.156721,0.7317568 0.04701,0.3146126 0.218368,0.6042226 0.45301,0.8190106 0.234643,0.214788 0.529589,0.357568 0.837483,0.437522 0.160995,0.04181 0.327317,0.06719 0.493508,0.0603 0.166192,-0.0069 0.332589,-0.047 0.476934,-0.129659 0.144344,-0.08266 0.265554,-0.209454 0.328657,-0.363353 0.0631,-0.1539 0.06457,-0.334842 -0.0086,-0.484214 -0.06865,-0.1401309 -0.199955,-0.2461049 -0.348928,-0.2925456 -0.148974,-0.046441 -0.313628,-0.034963 -0.458516,0.022979 -0.144888,0.057942 -0.270056,0.160763 -0.363018,0.286094 -0.09296,0.125331 -0.154438,0.272554 -0.187951,0.424957 -0.08321,0.378432 0.01305,0.794099 0.260869,1.09196 0.24782,0.29786 0.643511,0.46869 1.029624,0.436255 0.145887,-0.01225 0.290473,-0.05244 0.416844,-0.126357 0.126372,-0.07392 0.233881,-0.182481 0.29758,-0.314297 0.0637,-0.131817 0.08166,-0.287025 0.04019,-0.42743 -0.04147,-0.140404 -0.14434,-0.26348 -0.279168,-0.320528 -0.09899,-0.04188 -0.211836,-0.04764 -0.316169,-0.02181 -0.104333,0.02583 -0.200064,0.08237 -0.277416,0.156996 -0.154703,0.149257 -0.232173,0.364274 -0.255423,0.577979 -0.02432,0.223577 0.0061,0.453366 0.09139,0.66148 0.08525,0.208113 0.225461,0.393941 0.404489,0.530057 0.179027,0.136116 0.396625,0.221765 0.620742,0.240474 0.224117,0.01871 0.45396,-0.0301 0.649318,-0.141518 0.10907,-0.06221 0.210573,-0.147748 0.260427,-0.262988 0.02493,-0.05762 0.03601,-0.121794 0.02739,-0.183981 -0.0086,-0.06219 -0.0376,-0.122089 -0.08406,-0.164317 -0.05405,-0.04913 -0.129607,-0.07198 -0.202458,-0.06675 -0.07285,0.0052 -0.142574,0.03728 -0.198032,0.08481 -0.05546,0.04753 -0.0971,0.109946 -0.125407,0.177276 -0.02831,0.06733 -0.04367,0.139566 -0.05143,0.212192 -0.02219,0.207828 0.01751,0.419305 0.09393,0.613847 0.07641,0.194542 0.188605,0.373288 0.313599,0.540804 0.08706,0.116672 0.181297,0.229179 0.293312,0.322153 0.112014,0.09297 0.243016,0.166124 0.385554,0.19569 0.142538,0.02957 0.297159,0.01293 0.422391,-0.06129 0.06262,-0.03711 0.117209,-0.08815 0.156598,-0.149358 0.03939,-0.06121 0.06332,-0.132599 0.0666,-0.205311 0.0047,-0.105077 -0.0345,-0.210531 -0.102831,-0.290501 -0.06833,-0.07997 -0.164465,-0.134587 -0.26709,-0.157642 -0.102626,-0.02306 -0.21126,-0.01522 -0.311348,0.01712 -0.100088,0.03234 -0.191716,0.08867 -0.26962,0.159344 -0.12672,0.114955 -0.217744,0.269234 -0.254698,0.436288 -0.03695,0.167054 -0.01926,0.346111 0.0519,0.501705 0.07116,0.155593 0.195728,0.28658 0.348658,0.363295 0.15293,0.07671 0.333294,0.09817 0.499391,0.05713 0.16776,-0.04146 0.314029,-0.142068 0.453064,-0.24469 0.139035,-0.102622 0.277783,-0.210745 0.439667,-0.271205 0.08094,-0.03023 0.167228,-0.04798 0.253582,-0.04506 0.08635,0.0029 0.172814,0.02715 0.244467,0.07543 0.07165,0.04828 0.1276,0.121402 0.149029,0.205105 0.02143,0.0837 0.0064,0.177394 -0.04555,0.246461 -0.0484,0.06439 -0.124594,0.103773 -0.203264,0.121107 -0.07867,0.01733 -0.160338,0.01452 -0.240601,0.0076 -0.08026,-0.0069 -0.160451,-0.0177 -0.240992,-0.01613 -0.08054,0.0016 -0.162635,0.01633 -0.232072,0.05717 -0.06975,0.04102 -0.122919,0.10633 -0.160069,0.178212 -0.03715,0.07188 -0.05934,0.150497 -0.07765,0.229312 -0.04139,0.178115 -0.06419,0.360543 -0.06792,0.543365"
         id="path80"
         transform="matrix(-0.57989927,0.69936512,0.82035764,0.45652842,47.742947,-6.0631433)" />
    </g>
    <g
       id="layer10"
       style="display:inline">
      <ellipse
         style="fill:#616162;fill-opacity:1;stroke:#000000;stroke-width:0.31972"
         id="path2"
         cx="34.843708"
         cy="9.3893099"
         rx="12.627588"
         ry="4.8471885" />
      <path
         style="fill:#616162;fill-opacity:1;stroke:#000000;stroke-width:0.264583"
         d="m 25.406368,8.9330521 c 0,0 2.820938,2.5508829 9.269054,2.5690149 6.448115,0.01813 9.125349,-2.617042 9.125349,-2.617042 L 42.071793,2.5454395 27.711672,1.777005 Z"
         id="path3" />
      <path
         style="fill:#2b2b33;fill-opacity:1;stroke:#000000;stroke-width:0.0679206"
         d="M 33.156476,11.279453 C 30.386905,11.081541 27.746459,10.301529 26.033325,9.1752086 l -0.429837,-0.2826017 0.23577,-0.7567805 c 0.129675,-0.4162292 0.256979,-0.7804265 0.282901,-0.8093272 0.02593,-0.028901 0.549187,0.1899239 1.162814,0.4862773 3.739652,1.8060726 7.057231,2.3070975 10.583938,1.5983988 1.472324,-0.2958658 3.357649,-1.0012173 4.712197,-1.7629608 0.296465,-0.1667209 0.559557,-0.3031289 0.584644,-0.3031289 0.04353,0 0.418801,1.3173372 0.416354,1.4615462 -0.0021,0.1233435 -1.03378,0.7667402 -1.835033,1.1443929 -2.309093,1.0883393 -5.356288,1.5595493 -8.590597,1.3284283 z"
         id="path6" />
      <path
         style="fill:none;stroke:#000000;stroke-width:0.264583"
         d="m 26.126775,7.035979 c 5.521845,3.09057 11.192066,3.609284 17.09767,0.048027"
         id="path4" />
      <path
         style="fill:none;stroke:#000000;stroke-width:0.264583"
         d="m 35.972343,3.1217655 c 0,0 2.689521,1.8730592 5.042852,1.8010185"
         id="path5" />
    </g>
  </g>
</svg>
