<?xml version="1.0" encoding="UTF-8" standalone="no"?>
<!-- Created with Inkscape (http://www.inkscape.org/) -->

<svg
   width="80"
   height="80"
   viewBox="0 0 21.166666 21.166667"
   version="1.1"
   id="svg1"
   inkscape:version="1.4.2 (f4327f4, 2025-05-13)"
   sodipodi:docname="UI Control Player.svg"
   inkscape:export-filename="fire_button.png"
   inkscape:export-xdpi="96"
   inkscape:export-ydpi="96"
   inkscape:export-batch-path="..\..\Sprites"
   inkscape:export-batch-name="joystick_outer"
   xml:space="preserve"
   xmlns:inkscape="http://www.inkscape.org/namespaces/inkscape"
   xmlns:sodipodi="http://sodipodi.sourceforge.net/DTD/sodipodi-0.dtd"
   xmlns="http://www.w3.org/2000/svg"
   xmlns:svg="http://www.w3.org/2000/svg"><sodipodi:namedview
     id="namedview1"
     pagecolor="#ffffff"
     bordercolor="#000000"
     borderopacity="0.25"
     inkscape:showpageshadow="2"
     inkscape:pageopacity="0.0"
     inkscape:pagecheckerboard="0"
     inkscape:deskcolor="#d1d1d1"
     inkscape:document-units="px"
     showgrid="true"
     inkscape:zoom="7.7909517"
     inkscape:cx="40.046455"
     inkscape:cy="28.173708"
     inkscape:window-width="1920"
     inkscape:window-height="991"
     inkscape:window-x="-9"
     inkscape:window-y="-9"
     inkscape:window-maximized="1"
     inkscape:current-layer="layer24"
     showguides="true"
     inkscape:export-bgcolor="#ffffff00"><inkscape:grid
       id="grid1"
       units="px"
       originx="0"
       originy="0"
       spacingx="1.3229167"
       spacingy="0.26458333"
       empcolor="#fc18ff"
       empopacity="0.30196078"
       color="#35b08d"
       opacity="0.14901961"
       empspacing="5"
       enabled="true"
       visible="true" /><sodipodi:guide
       position="10.583333,10.583333"
       orientation="0,1"
       id="guide1"
       inkscape:locked="false"
       inkscape:label=""
       inkscape:color="rgb(0,134,229)" /><sodipodi:guide
       position="10.583333,10.583333"
       orientation="-1,0"
       id="guide2"
       inkscape:locked="false"
       inkscape:label=""
       inkscape:color="rgb(0,134,229)" /></sodipodi:namedview><defs
     id="defs1" /><g
     inkscape:label="Outer"
     inkscape:groupmode="layer"
     id="layer1"
     style="display:inline"
     transform="matrix(0.39831557,0,0,0.39831557,15.897157,15.85641)"><ellipse
       style="fill:none;stroke:#9eabc9;stroke-width:1.30125;stroke-linecap:round;stroke-linejoin:bevel;stroke-dasharray:5.20499, 2.60249;stroke-dashoffset:0;stroke-opacity:1;paint-order:normal"
       id="path2"
       cx="-13.384122"
       cy="-12.969564"
       rx="25.91954"
       ry="25.919804" /></g><g
     inkscape:groupmode="layer"
     id="layer2"
     inkscape:label="Jump"
     transform="matrix(1.0784513,0,0,1.0846799,-1.3460784,-2.5820174)"
     style="display:none"><g
       id="g4"
       transform="matrix(0.97628184,0,0,0.99683338,0.71435319,0.45523248)"
       style="fill:none;fill-opacity:0"><path
         style="fill:none;fill-opacity:0;stroke:#9eabc9;stroke-width:0.264583;stroke-linecap:round;stroke-linejoin:bevel;stroke-dasharray:none;stroke-dashoffset:0"
         d="m 3.9054386,17.116009 6.5203844,0.203762 c 2.520278,-2.235764 6.564389,-5.030482 7.744135,-6.733287 C 18.48397,10.13325 18.970897,9.6403004 18.704123,9.1274075 18.262367,8.2780999 15.702162,6.6668485 13.46256,5.4099245 L 9.6833166,9.1977382 10.459783,11.954038 c 0,0 -6.3177901,-0.870166 -6.4185031,1.698017 z"
         id="path1"
         sodipodi:nodetypes="ccsscccsc" /><path
         style="fill:none;fill-opacity:0;stroke:#9eabc9;stroke-width:0.264583;stroke-linecap:round;stroke-linejoin:bevel;stroke-dasharray:none;stroke-dashoffset:0"
         d="m 4.0073196,16.470762 6.3522894,0.0065 7.605408,-6.7646399 0.03396,-1.188612"
         id="path3"
         sodipodi:nodetypes="cccc" /><path
         style="fill:none;fill-opacity:0;stroke:#9eabc9;stroke-width:0.264583;stroke-linecap:round;stroke-linejoin:bevel;stroke-dasharray:none;stroke-dashoffset:0"
         d="m 9.4736197,9.3222621 c 0,0 -0.513771,0.488859 -0.8164621,0.432244 C 8.0324497,9.6376611 7.4084513,8.3136911 7.4084513,8.3136911 L 12.451304,3.2708387 c 0,0 1.200994,0.6172038 1.344761,1.2006792 0.06545,0.2656185 -0.288163,0.7684346 -0.288163,0.7684346"
         id="path4"
         sodipodi:nodetypes="csccsc" /></g><g
       inkscape:groupmode="layer"
       id="layer4"
       inkscape:label="Color"
       transform="matrix(0.9272556,0,0,0.92193098,1.2481587,2.3804418)"><path
         style="fill:#ffffff;fill-opacity:0.5;stroke:none;stroke-width:0.18152;stroke-linecap:round;stroke-linejoin:bevel"
         d="m 31.85676,31.118471 c -0.299508,-0.156303 -0.73604,-0.462551 -0.970072,-0.680549 -0.512595,-0.47748 -2.489117,-3.396563 -2.656135,-3.922793 -0.09889,-0.311572 1.496218,-2.029092 9.536209,-10.268042 5.310229,-5.441638 9.696458,-9.893887 9.747175,-9.893887 0.511007,0 3.485412,2.3393791 4.097614,3.2227872 0.620459,0.8953218 0.610114,1.3797578 -0.05757,2.6964128 -0.298245,0.588126 -0.543297,1.151448 -0.54456,1.251827 -0.003,0.238862 -15.230221,15.914026 -15.70378,16.165751 -0.199672,0.106138 -0.757296,0.494137 -1.239164,0.86222 -0.481868,0.368084 -0.94487,0.669242 -1.028894,0.669242 -0.08402,0 -0.261555,0.04078 -0.394516,0.09061 -0.13296,0.04984 -0.486798,-0.03727 -0.786306,-0.193578 z"
         id="path7"
         transform="scale(0.26458333)" /><path
         style="fill:#ffffff;fill-opacity:0.5;stroke:none;stroke-width:0.18152;stroke-linecap:round;stroke-linejoin:bevel"
         d="m 14.158136,57.8595 c -0.0014,-3.172565 0.414573,-10.504693 0.641975,-11.315443 0.692718,-2.469723 3.772022,-4.232803 8.899227,-5.095324 2.440518,-0.410555 10.607241,-0.464939 13.77507,-0.09173 3.001385,0.3536 2.934033,0.729849 1.075918,-6.010544 l -1.50463,-5.458111 5.029371,-5.161916 c 2.766156,-2.839054 6.017926,-6.194285 7.226155,-7.45607 l 2.196781,-2.294152 3.430339,2.063844 c 4.371312,2.629977 9.631267,6.127896 11.961778,7.954697 l 1.8152,1.422867 0.03517,2.538052 0.03517,2.538052 L 53.790043,45.1531 38.804429,58.81248 H 26.481495 14.15856 Z"
         id="path8"
         transform="scale(0.26458333)" /><path
         style="fill:#ffffff;fill-opacity:0.5;stroke:#9eabc9;stroke-width:0.18152;stroke-linecap:round;stroke-linejoin:bevel"
         d="M 25.36742,61.837237 13.97704,61.466529 V 60.774824 60.08312 h 12.60531 12.605311 l 1.144829,-0.983557 c 0.629656,-0.540957 7.516182,-6.810692 15.30339,-13.932744 l 14.15856,-12.949185 0.18152,-2.264761 0.18152,-2.26476 0.656705,0.813684 c 1.666257,2.064561 1.541508,2.697275 -1.310828,6.64837 -2.729725,3.781252 -6.421577,7.130369 -21.573228,19.570462 -2.426819,1.992512 -5.420741,4.504295 -6.653163,5.58174 L 39.036199,62.26136 37.897,62.234653 c -0.62656,-0.01469 -6.264871,-0.193526 -12.52958,-0.397416 z"
         id="path9"
         transform="scale(0.26458333)" /></g></g><g
     inkscape:groupmode="layer"
     id="layer22"
     inkscape:label="Fire"
     style="display:none;opacity:0.543131;fill:none;fill-opacity:0.5"
     transform="matrix(1.001289,0,0,1.0217166,0.03478778,0.47424455)"><path
       style="opacity:1;fill:none;fill-opacity:0.5;stroke:#9eabc9;stroke-width:0.330057;stroke-linecap:round;stroke-linejoin:bevel;stroke-opacity:1"
       d="m 1.5824061,11.312521 0.359976,1.003051 2.3836256,-1.003051 0.2043108,0.530349 c 0,0 0.3016018,0 0.3113307,-0.126829 l -0.126478,-0.564932 c 0,0 1.0604702,-0.472703 1.3523427,0.449646 l 3.0786207,-1.389874 c 0,0 1.3758994,2.9675 1.1557554,4.35342 m 0,0 1.816189,0.09783 c 0,0 0.04127,-2.983806 -0.165108,-3.09794 -0.206385,-0.114134 1.10072,-0.326099 1.10072,-0.326099 l 1.389658,1.989204 1.403419,-1.157652 -2.242716,-2.9674992 0.935612,-0.717418 4.361604,0.782637 -1.265829,-4.3860292 -3.45351,1.6957139 -2.008815,-0.7500274 c 0,0 -0.288939,0.4891483 -0.192626,0.7663323 l -1.210791,0.3913197 -0.15135,-0.309794 -2.2151987,1.0924312 0.5916372,2.4783517"
       id="path10" /><path
       style="opacity:1;fill:none;fill-opacity:0.5;stroke:#9eabc9;stroke-width:0.330057;stroke-linecap:round;stroke-linejoin:bevel;stroke-opacity:1"
       d="M 8.4994612,7.8466646 5.1973005,9.4119398 3.8214003,8.3521178 4.1240984,9.9010878 1.4686109,11.123958"
       id="path11" /><path
       style="opacity:1;fill:none;fill-opacity:0.5;stroke:#9eabc9;stroke-width:0.338548;stroke-linecap:round;stroke-linejoin:bevel;stroke-opacity:1"
       d="m 10.864881,9.8445535 c 0,0 0.364921,1.3064175 0.91709,1.1015525 0.164219,-0.06093 0.975283,-0.335041 1.022912,-0.55804 C 12.9174,9.861254 12.448845,9.1185359 12.448845,9.1185359 Z"
       id="path12"
       sodipodi:nodetypes="csscc" /><path
       style="opacity:1;fill:none;fill-opacity:0.5;stroke:#9eabc9;stroke-width:0.294549;stroke-linecap:round;stroke-linejoin:bevel;stroke-opacity:1"
       d="m 11.625606,9.5768454 c 0,0 0.331339,0.2507415 0.267209,0.8358056"
       id="path13" /><path
       style="opacity:1;fill:none;fill-opacity:0.5;stroke:#9eabc9;stroke-width:0.261588;stroke-linecap:round;stroke-linejoin:bevel;stroke-opacity:1"
       d="M 1.9798012,10.934875 2.4354719,12.22755"
       id="path14" /><g
       inkscape:groupmode="layer"
       id="layer23"
       inkscape:label="Color"
       transform="matrix(0.99871266,0,0,0.97874499,-0.034743,-0.46416448)"><path
         style="opacity:1;fill:#ffffff;fill-opacity:1;stroke:none;stroke-width:0.18152;stroke-linecap:round;stroke-linejoin:bevel;stroke-opacity:1"
         d="m 43.111,57.533639 c -1.048278,-0.07086 -2.212275,-0.138843 -2.58666,-0.151075 l -0.6807,-0.02224 v -1.170666 c 0,-2.209656 -0.964784,-6.167269 -2.590918,-10.628134 -0.998668,-2.739578 -1.755074,-4.425477 -2.11749,-4.71952 -0.240856,-0.195417 -0.597921,-1.399603 -1.264869,-4.26572 -0.511102,-2.196392 -0.928198,-4.198622 -0.92688,-4.449401 0.0022,-0.410334 0.356603,-0.632789 3.542037,-2.22302 1.946802,-0.971882 3.53964,-1.687528 3.53964,-1.590323 0,0.0972 0.211985,0.315633 0.471077,0.485396 0.456309,0.298986 0.546544,0.283969 2.878484,-0.479012 2.258245,-0.738869 2.420256,-0.823203 2.614764,-1.361104 0.114045,-0.315387 0.207355,-0.77665 0.207355,-1.02503 0,-0.248379 0.104043,-0.593885 0.231206,-0.76779 0.21444,-0.293265 0.474199,-0.223389 3.582334,0.963666 1.843121,0.703922 3.556548,1.275429 3.807615,1.270015 0.251066,-0.0054 3.190721,-1.382985 6.532566,-3.061271 l 6.076081,-3.051429 2.114675,7.463132 c 1.163071,4.104722 2.104615,7.476147 2.092319,7.492056 -0.0123,0.01591 -3.492917,-0.60733 -7.734712,-1.384974 -4.241796,-0.777644 -7.842209,-1.362448 -8.000919,-1.299565 -0.158712,0.06288 -1.075822,0.726964 -2.038023,1.475734 -1.520114,1.182927 -1.749477,1.43279 -1.749591,1.90596 -1.06e-4,0.425844 0.867754,1.711937 3.980929,5.8994 2.189585,2.945162 3.979011,5.395682 3.976503,5.4456 -0.006,0.119609 -3.872512,3.32559 -4.084747,3.386944 -0.09022,0.02608 -1.185086,-1.470557 -2.433036,-3.325864 -1.24795,-1.855305 -2.448823,-3.492516 -2.668606,-3.638244 -0.351571,-0.233109 -0.56977,-0.230053 -1.8152,0.02543 -3.030468,0.62165 -3.775636,1.084705 -3.327681,2.067861 0.117009,0.256806 0.287452,1.369628 0.378762,2.472938 0.200554,2.423332 0.226221,8.462121 0.03579,8.419536 -0.07488,-0.01675 -0.993822,-0.08842 -2.0421,-0.159278 z M 46.323877,44.21564 c 1.649198,-0.67938 2.49694,-1.216135 2.792256,-1.767938 0.677015,-1.265012 -0.570643,-5.726484 -1.685827,-6.028308 -0.297713,-0.08057 -1.282525,0.288387 -3.450406,1.292704 -3.623863,1.678831 -3.66266,1.724756 -2.982832,3.530893 0.678617,1.80292 1.650455,3.162116 2.476972,3.464254 0.624872,0.228427 1.445676,0.08684 2.849837,-0.491605 z"
         id="path15"
         transform="scale(0.26458333)" /><path
         style="opacity:1;fill:#ffffff;fill-opacity:1;stroke:none;stroke-width:0.18152;stroke-linecap:round;stroke-linejoin:bevel;stroke-opacity:1"
         d="M 8.9208243,46.015898 C 8.6445677,45.167611 8.4603744,44.405867 8.511506,44.323134 c 0.051131,-0.08273 1.741518,-0.920254 3.756414,-1.861158 2.195724,-1.025347 3.766774,-1.867598 3.921353,-2.102266 0.225806,-0.342797 0.211076,-0.634205 -0.118346,-2.34123 -0.20694,-1.072335 -0.346896,-1.979057 -0.311015,-2.014939 0.03588,-0.03588 0.833832,0.536391 1.773223,1.271715 0.939392,0.735324 1.877693,1.390429 2.085114,1.455789 0.27137,0.08551 2.002109,-0.66779 6.17168,-2.686212 3.685969,-1.784318 5.822616,-2.726416 5.871674,-2.588961 0.288988,0.809705 1.761404,7.498708 1.67019,7.587475 -0.0625,0.06082 -2.294423,1.109984 -4.959834,2.33147 l -4.8462,2.220883 -0.596564,-0.679448 c -0.774236,-0.881807 -1.507664,-1.173114 -2.910785,-1.156122 -1.560941,0.0189 -2.364364,0.331043 -2.59249,1.007216 -0.17503,0.518794 -0.198483,0.52847 -0.655958,0.270627 -0.450636,-0.253987 -0.637331,-0.19742 -3.72116,1.127477 -1.785697,0.767183 -3.3319904,1.394409 -3.4362075,1.393835 -0.104217,-5.75e-4 -0.4155136,-0.695099 -0.6917702,-1.543387 z"
         id="path16"
         transform="scale(0.26458333)" /><path
         style="opacity:1;fill:#ffffff;fill-opacity:1;stroke:none;stroke-width:0.18152;stroke-linecap:round;stroke-linejoin:bevel;stroke-opacity:1"
         d="M 7.7359991,47.8759 C 7.6528746,47.651269 7.4061104,46.984753 7.1876343,46.394754 6.8040975,45.359004 6.7908317,44.83544 7.1481251,44.83544 c 0.2028486,0 1.3051145,3.194294 1.1543058,3.345103 C 8.0944534,48.38852 7.8837611,48.275204 7.7359991,47.8759 Z"
         id="path17"
         transform="scale(0.26458333)" /></g></g><g
     inkscape:groupmode="layer"
     id="layer24"
     inkscape:label="Bomb"
     transform="rotate(-36.898243,11.490006,10.064545)"
     inkscape:transform-center-x="0.89515576"
     inkscape:transform-center-y="-1.2006104"><circle
       style="opacity:1;fill:#ffffff;fill-opacity:1;stroke:#9eabc9;stroke-width:0.264583;stroke-linecap:round;stroke-linejoin:bevel;stroke-opacity:1"
       id="path18"
       cx="10.561665"
       cy="10.561665"
       r="5.0261292" /><path
       style="opacity:1;fill:#ffffff;fill-opacity:1;stroke:#9eabc9;stroke-width:0.264583;stroke-linecap:round;stroke-linejoin:bevel;stroke-opacity:1"
       d="M 9.7975419,5.5471377 9.7255011,3.8421733 7.9244824,4.4425129 7.9004688,3.1217658 11.838696,2.9536707 11.670601,3.8661869 10.758085,4.0582955 10.710058,5.5711513"
       id="path19" /><path
       style="opacity:1;fill:#ffffff;fill-opacity:1;stroke:#9eabc9;stroke-width:0.264583;stroke-linecap:round;stroke-linejoin:bevel;stroke-opacity:1"
       d="M 11.610567,3.0377183 C 11.452604,2.1599151 16.728291,5.1365199 17.06165,9.4253313 17.39501,13.714143 14.832372,3.0926486 11.478493,3.8902005"
       id="path20"
       sodipodi:nodetypes="czc" /></g></svg>
